<?xml version="1.0" standalone="no"?>
<!DOCTYPE svg PUBLIC "-//W3C//DTD SVG 20010904//EN"
 "http://www.w3.org/TR/2001/REC-SVG-20010904/DTD/svg10.dtd">
<svg version="1.0" xmlns="http://www.w3.org/2000/svg"
 width="720.000000pt" height="720.000000pt" viewBox="0 0 720.000000 720.000000"
 preserveAspectRatio="xMidYMid meet">
<metadata>
Created by potrace 1.14, written by Peter Selinger 2001-2017
</metadata>
<g transform="translate(0.000000,720.000000) scale(0.100000,-0.100000)"
fill="#000000" stroke="none">
<path d="M0 3600 l0 -3600 1540 0 1540 0 0 200 c0 113 4 200 9 200 5 0 7 -9 4
-20 -3 -11 -1 -20 5 -20 7 0 13 30 15 73 1 39 4 -42 5 -180 l2 -253 1365 0
c1036 0 1365 3 1365 12 0 6 8 20 18 31 16 19 16 20 -5 8 -20 -10 -23 -9 -23 9
0 12 -4 19 -8 16 -5 -3 -9 11 -10 32 -1 24 2 32 7 23 7 -11 10 -11 17 0 4 7 3
14 -4 17 -7 2 -10 8 -6 13 3 5 1 9 -5 9 -6 0 -8 7 -5 15 4 8 1 15 -6 15 -10 0
-10 3 -1 14 7 9 8 17 2 20 -5 3 -11 0 -14 -6 -4 -11 -3 219 2 303 1 20 8 29
29 34 26 8 25 8 -18 20 l-45 12 30 7 c94 23 142 40 159 54 15 13 20 14 23 4 4
-10 9 -8 20 5 14 17 14 17 9 0 -3 -11 4 -37 18 -60 26 -46 59 -174 46 -182
-10 -6 -20 19 -20 48 0 11 -9 39 -19 61 -10 23 -22 53 -25 69 -4 15 -11 27
-17 27 -10 0 -12 -514 -2 -592 l5 -38 329 0 c181 0 329 3 329 8 0 4 -9 31 -21
61 -14 37 -17 56 -9 61 7 5 3 28 -14 76 -14 38 -34 101 -44 139 -11 39 -36
112 -56 164 -20 52 -35 99 -33 105 4 11 60 -102 112 -224 16 -36 47 -108 70
-160 24 -52 54 -125 66 -162 l24 -68 222 0 223 0 0 3381 0 3380 -24 32 c-36
47 -40 77 -20 157 12 51 21 70 30 66 11 -4 14 14 14 90 l0 95 -437 -5 c-241
-3 -449 -5 -463 -6 -14 0 -85 2 -157 6 l-133 6 -1 -43 -1 -44 -13 30 -14 30
-1 -35 c0 -24 -9 -47 -29 -70 -16 -19 -32 -32 -35 -29 -3 3 -12 40 -18 82
l-13 77 -2942 0 -2943 0 0 -3600z m4173 3346 c73 -35 169 -76 215 -90 79 -25
86 -30 165 -110 72 -73 78 -82 47 -69 -19 9 -62 16 -95 18 -33 1 -69 5 -80 9
-20 7 -20 7 -1 -8 11 -9 36 -15 60 -14 26 1 63 -8 103 -26 63 -29 88 -49 107
-89 7 -12 45 -45 86 -74 107 -74 216 -170 262 -230 37 -48 41 -51 69 -43 23 7
31 5 36 -6 4 -12 8 -13 13 -4 5 9 10 6 15 -9 7 -24 13 -25 52 -10 21 8 24 12
13 19 -8 5 -12 10 -10 12 3 2 20 13 38 26 18 13 38 20 44 16 6 -4 8 -3 5 3 -4
6 33 28 86 52 99 44 98 44 148 80 l34 25 -21 -25 c-12 -13 -38 -50 -59 -82
-34 -55 -35 -58 -14 -52 l23 8 -19 -29 c-18 -29 -18 -29 1 -14 10 8 23 21 27
28 5 7 13 9 19 6 7 -4 8 -2 4 4 -4 6 4 16 16 23 13 7 48 34 77 61 81 72 84 58
5 -19 -38 -38 -87 -92 -109 -121 -29 -39 -49 -55 -76 -62 -21 -6 -39 -14 -41
-18 -5 -11 -79 -47 -100 -48 -10 -1 -23 5 -29 12 -11 13 -65 9 -83 -7 -5 -4
-14 -5 -22 -2 -7 2 -21 -1 -31 -7 -16 -10 -16 -11 0 -6 9 3 17 1 17 -5 0 -6 7
-6 19 1 27 14 39 12 21 -3 -20 -16 -22 -34 -5 -34 7 0 11 6 8 12 -2 7 3 15 12
19 12 4 15 1 11 -12 -3 -9 -1 -24 5 -32 8 -12 9 -11 7 5 -3 27 9 45 30 44 14
0 13 -2 -3 -9 -19 -8 -19 -9 1 -9 12 -1 25 6 28 15 4 9 9 14 13 11 9 -10 -65
-95 -89 -103 -23 -7 -55 -34 -41 -34 5 0 19 7 31 16 12 8 27 12 34 8 7 -4 8
-3 4 4 -9 16 7 15 22 0 9 -9 27 4 78 58 l66 69 -50 -68 c-28 -37 -61 -76 -74
-87 -24 -19 -165 -53 -180 -44 -4 3 -8 1 -8 -3 0 -9 -79 -48 -85 -42 -1 2 2
30 8 63 10 56 10 59 -13 76 -26 20 -42 18 -22 -2 7 -7 12 -17 12 -24 0 -12
-20 -14 -138 -16 -50 0 -62 -3 -58 -14 4 -10 -3 -14 -22 -14 -16 0 -33 -5 -39
-11 -13 -13 -43 -5 -43 12 0 6 7 9 15 5 13 -4 14 -2 5 14 -12 22 -30 26 -47 9
-6 -6 -13 -7 -17 -1 -3 5 6 20 19 32 35 33 32 50 -7 49 -18 -1 -25 -3 -15 -6
9 -2 17 -8 17 -13 0 -9 -40 -35 -50 -33 -3 1 -5 -9 -5 -22 0 -13 3 -21 7 -19
4 2 9 0 13 -6 3 -5 4 -10 1 -10 -2 0 -11 -3 -19 -6 -8 -3 -24 5 -36 17 -12 13
-21 18 -21 13 0 -5 22 -31 49 -58 47 -46 70 -92 47 -93 -6 0 -15 -2 -21 -3
-24 -6 -45 1 -45 15 0 8 -3 14 -7 14 -26 -4 -53 3 -50 13 2 12 -3 14 -45 17
l-23 2 23 9 c12 5 22 13 22 18 0 5 12 8 28 6 15 -2 21 -1 14 2 -9 4 -10 10 -2
19 8 9 -1 25 -36 61 -26 27 -44 43 -40 37 4 -7 5 -13 2 -13 -3 0 -10 9 -15 19
-9 16 -8 18 11 13 16 -4 19 -2 12 9 -6 10 0 8 19 -4 28 -18 38 -8 12 13 -8 7
-15 17 -15 23 0 5 8 3 18 -6 10 -10 22 -17 27 -17 6 0 -11 15 -54 47 -2 1 1 8
6 15 13 16 0 52 -24 68 -16 10 -16 11 0 6 11 -3 17 0 17 10 0 20 -27 29 -45
14 -12 -10 -15 -10 -15 3 0 8 -7 18 -16 21 -15 6 -15 4 -3 -10 8 -10 10 -15 4
-13 -5 3 -32 15 -60 28 -27 12 -62 25 -77 28 -16 3 -28 10 -28 15 0 6 7 7 16
4 8 -3 13 -2 10 3 -3 5 -15 11 -27 14 -15 4 -19 2 -15 -9 6 -16 2 -17 -44 -8
-23 5 -28 9 -18 16 9 7 4 8 -14 4 -19 -4 -28 -2 -29 6 0 10 -2 9 -6 -1 -4 -9
-7 -10 -12 -2 -4 6 -24 12 -44 13 -35 1 -44 11 -38 42 1 5 -5 3 -14 -4 -8 -7
-18 -10 -22 -6 -3 3 0 6 7 6 7 0 11 3 7 6 -3 3 -2 17 3 30 7 18 6 22 -5 17 -8
-3 -15 -11 -15 -19 0 -8 -5 -14 -11 -14 -5 0 -7 -6 -3 -12 4 -7 -2 -5 -13 5
-11 9 -25 17 -32 17 -7 0 -10 4 -6 9 3 5 1 12 -5 16 -18 11 -10 23 20 30 25 6
29 9 19 21 -9 11 -8 14 7 15 11 1 30 4 44 7 14 2 70 6 125 8 101 3 155 -9 266
-59 19 -8 55 -23 81 -32 38 -14 54 -28 77 -64 15 -26 45 -62 65 -81 36 -34 86
-57 86 -39 0 5 -9 9 -20 9 -10 0 -27 11 -37 26 -10 14 -31 39 -47 56 -17 16
-41 46 -55 65 -27 37 -34 39 -250 114 -72 25 -131 39 -163 39 -62 0 -250 -43
-315 -71 -26 -12 -59 -21 -73 -20 -18 0 -21 -2 -11 -8 11 -7 11 -10 0 -17 -8
-4 -14 -3 -17 5 -3 9 -7 9 -18 0 -8 -7 -18 -9 -22 -5 -4 4 0 13 9 19 21 16 13
37 -14 36 -12 0 -17 -3 -10 -6 10 -3 10 -7 0 -18 -16 -17 -27 -10 -28 18 l0
22 -9 -22 c-10 -25 -18 -27 -38 -14 -10 6 -8 10 9 14 21 6 21 8 -19 47 -40 38
-60 51 -47 31 11 -19 -17 -23 -31 -5 -9 11 -13 13 -9 7 3 -7 1 -14 -4 -14 -37
-5 -46 -2 -49 14 -2 12 3 17 17 17 12 0 21 5 21 11 0 7 -12 9 -33 5 -27 -5
-37 -2 -55 19 -23 26 -29 40 -13 31 5 -4 11 -3 13 1 1 5 21 21 44 36 28 19 47
25 60 20 18 -7 18 -6 1 12 -15 14 -16 20 -5 27 9 7 7 8 -7 3 -11 -3 -42 -11
-69 -16 -59 -11 -129 -31 -136 -39 -3 -3 -18 -12 -34 -20 -21 -11 -30 -12 -33
-3 -3 8 -13 9 -34 3 -16 -5 -29 -5 -29 -1 0 15 25 27 50 25 14 -1 27 2 30 6 3
5 20 10 38 13 17 3 45 16 62 30 25 22 27 27 15 37 -22 18 -18 40 8 40 20 1 21
2 5 14 -23 17 -23 30 -1 22 10 -4 14 -4 9 1 -10 10 -76 11 -69 0 2 -4 -3 -10
-13 -14 -10 -4 -20 0 -26 10 -5 10 -20 17 -34 17 -14 0 -23 -4 -20 -9 3 -5 -1
-12 -9 -15 -13 -4 -13 -2 -5 14 6 11 26 22 48 26 20 4 31 9 25 11 -49 17 67
54 242 79 66 9 136 20 155 25 48 12 237 24 228 14 -11 -11 11 -35 32 -35 10 0
23 7 30 15 10 12 16 13 26 4 9 -7 14 -8 14 -1 0 12 -24 22 -53 22 -18 0 -19 2
-7 10 39 25 99 11 233 -54z m-238 24 c3 -5 1 -10 -4 -10 -6 0 -11 5 -11 10 0
6 2 10 4 10 3 0 8 -4 11 -10z m-1955 -192 c0 -4 -4 -8 -10 -8 -5 0 -10 5 -10
12 0 6 -12 27 -26 47 l-25 36 35 -39 c20 -22 36 -43 36 -48z m-51 -15 c2 -2 1
-6 -2 -9 -4 -4 -13 -2 -20 4 -8 7 -16 9 -19 6 -7 -6 -73 28 -108 56 -17 14 3
8 60 -17 47 -20 87 -38 89 -40z m1401 28 c0 -5 -9 -7 -20 -4 -11 3 -20 7 -20
9 0 2 9 4 20 4 11 0 20 -4 20 -9z m-170 -12 c0 -5 5 -7 10 -4 6 3 10 0 10 -7
0 -7 -23 -25 -50 -39 -28 -15 -50 -24 -50 -20 0 4 16 15 36 25 28 13 34 20 25
29 -15 15 -14 27 4 27 8 0 15 -5 15 -11z m-1154 -60 l19 -22 -32 17 c-35 18
-41 26 -20 26 8 0 22 -10 33 -21z m227 -73 c20 -19 37 -41 37 -48 0 -7 -12 1
-27 18 -16 16 -46 47 -68 68 -31 30 -33 34 -10 18 17 -11 47 -37 68 -56z
m2972 34 c15 -28 22 -90 9 -77 -12 12 -41 107 -33 107 5 0 15 -13 24 -30z
m-3200 0 c3 -6 -1 -7 -9 -4 -18 7 -21 14 -7 14 6 0 13 -4 16 -10z m950 -57
c-21 -16 -66 -55 -101 -87 -35 -33 -64 -56 -64 -52 0 16 22 46 34 46 17 0 73
64 68 79 -2 6 2 9 10 6 7 -3 27 4 43 14 46 30 53 25 10 -6z m2337 -33 c2 -19
-2 -35 -9 -37 -10 -3 -13 10 -13 49 1 58 17 49 22 -12z m-2644 -77 c45 -28 52
-37 47 -56 -5 -17 -4 -19 4 -7 9 13 11 12 11 -3 0 -10 4 -16 9 -13 5 3 11 -1
15 -9 3 -8 12 -15 21 -15 10 0 2 14 -24 42 -23 23 -39 44 -36 46 2 2 31 -15
65 -38 33 -24 64 -40 68 -35 4 4 1 10 -5 12 -7 3 -13 9 -13 15 0 6 7 5 16 -3
9 -7 26 -13 37 -14 14 0 23 -8 25 -20 6 -33 33 -55 63 -53 15 1 36 -6 47 -15
35 -32 73 -12 40 21 -9 9 -9 12 -1 12 7 0 15 -4 18 -10 10 -17 25 -11 18 8 -3
10 4 5 19 -11 27 -31 77 -67 92 -67 6 0 5 5 -2 12 -18 18 -15 28 8 28 11 0 20
-7 20 -16 0 -11 6 -13 19 -9 11 3 22 1 26 -4 3 -7 0 -8 -9 -5 -23 9 -20 1 10
-27 l26 -24 -7 28 c-5 17 -3 27 4 27 6 0 12 -4 12 -10 1 -5 2 -16 3 -22 1 -12
126 -51 126 -40 0 3 -10 17 -22 30 -21 22 -21 24 -3 14 23 -12 55 -48 55 -61
0 -5 6 -12 13 -14 6 -2 -1 -2 -18 0 -16 3 -39 5 -50 4 -11 0 -35 4 -53 9 -28
7 -32 7 -22 -5 7 -8 21 -17 32 -21 11 -3 17 -11 15 -17 -3 -8 9 -12 34 -12 21
-1 35 3 33 7 -3 4 0 8 5 8 6 0 11 -9 11 -20 0 -11 6 -20 13 -20 9 0 8 -3 -2
-9 -19 -12 4 -24 30 -16 20 7 20 8 -7 27 -16 11 -21 18 -12 14 10 -3 20 0 24
5 3 6 15 9 25 6 11 -3 16 -1 13 5 -3 5 -15 8 -25 5 -11 -3 -19 -1 -19 4 0 9
39 14 70 9 8 -1 28 -13 44 -26 28 -24 28 -25 8 -31 -12 -3 -19 -9 -16 -14 3
-5 14 -4 25 2 19 10 19 9 9 -10 -8 -16 -7 -26 6 -46 9 -14 20 -25 24 -25 4 0
11 -7 14 -16 7 -17 -7 -11 -39 17 -11 10 -33 23 -49 29 -25 9 -27 9 -16 -5 7
-8 28 -24 47 -36 19 -12 32 -24 29 -27 -3 -2 -11 0 -19 6 -7 6 -25 16 -40 21
-24 10 -27 9 -19 -7 12 -24 14 -80 3 -86 -5 -3 -7 3 -4 14 3 12 0 20 -8 20 -7
0 -22 9 -34 20 -12 11 -36 22 -53 23 -18 1 -32 6 -32 11 0 5 -6 4 -12 -2 -7
-5 -28 -13 -45 -17 -33 -7 -42 2 -23 21 6 6 -1 14 -20 21 -17 6 -30 7 -30 2 0
-22 -42 -7 -58 21 -18 31 -39 42 -28 15 3 -9 13 -44 22 -78 9 -34 20 -69 25
-77 7 -11 8 -9 3 8 -5 21 -3 23 15 17 14 -4 21 -2 19 5 -2 7 3 15 10 17 7 3
11 -1 10 -9 -2 -7 3 -12 10 -10 7 1 24 -10 37 -25 26 -30 33 -48 13 -37 -7 4
2 -7 21 -25 26 -23 30 -31 17 -31 -11 0 -15 -4 -10 -12 10 -16 -24 9 -49 37
-10 11 -24 20 -30 21 -7 0 -18 2 -24 2 -7 1 -13 9 -13 18 0 10 -6 14 -15 10
-9 -3 -29 7 -48 23 -51 43 -80 61 -102 61 -28 0 -145 57 -145 71 0 6 -7 9 -15
5 -8 -3 -15 -1 -15 5 0 5 -12 21 -27 34 -16 13 -23 25 -16 25 6 0 14 -4 18 -9
3 -6 19 -16 35 -24 25 -13 29 -13 35 0 3 9 -2 21 -12 28 -35 26 -6 24 33 -2
21 -15 33 -19 26 -10 -12 14 -11 16 7 14 12 -1 21 -7 21 -14 0 -7 5 -13 10
-13 12 0 12 3 4 25 -4 9 -17 21 -30 26 -33 12 -31 39 2 39 16 0 23 -4 18 -12
-5 -7 -3 -8 6 -3 9 6 12 4 8 -7 -4 -8 -1 -15 5 -15 7 0 13 11 13 24 1 13 -3
22 -10 21 -6 -1 -21 2 -34 6 -15 5 -27 2 -38 -8 -14 -14 -18 -14 -42 1 -23 15
-25 15 -14 2 11 -14 9 -16 -13 -11 -21 3 -23 7 -14 18 10 12 9 13 -5 8 -12 -4
-22 1 -33 15 -11 17 -23 22 -49 19 -18 -1 -36 1 -40 5 -14 14 -26 7 -14 -8 7
-8 9 -15 4 -15 -11 1 -48 50 -42 56 3 2 27 -3 53 -11 57 -17 67 -13 31 10 -16
11 -23 22 -19 33 5 14 3 13 -9 -2 -17 -22 -64 -17 -137 15 -27 12 -47 16 -51
10 -7 -12 -50 -3 -50 11 0 5 10 7 23 4 13 -4 10 0 -8 8 -18 9 -34 11 -41 5 -7
-6 -10 -1 -10 14 1 13 -4 21 -11 20 -7 -2 -13 2 -13 8 0 5 -5 7 -10 4 -8 -5
-7 -11 1 -21 6 -8 8 -14 3 -14 -9 0 -86 77 -112 112 -11 14 -10 16 7 11 12 -3
18 -10 15 -15 -4 -6 1 -8 13 -4 13 4 26 -1 38 -14 10 -11 23 -20 28 -20 6 0
19 -7 29 -17 10 -9 30 -18 44 -19 21 -2 23 0 14 11 -7 8 -17 12 -24 8 -6 -3
-8 -2 -3 2 4 5 0 17 -10 27 -9 10 -11 18 -5 18 6 0 14 -5 18 -11 3 -6 14 -9
23 -6 10 2 31 -10 52 -30 29 -30 129 -91 129 -80 0 2 -25 21 -55 41 -31 20
-53 41 -50 46 3 5 -7 16 -22 24 -15 8 -46 33 -68 56 -45 47 -32 44 63 -17z
m-62 3 c15 -16 18 -26 6 -26 -4 0 -13 9 -20 20 -14 23 -7 26 14 6z m914 -26
c0 -5 3 -17 7 -27 4 -11 -2 -8 -15 9 -26 31 -28 40 -7 32 8 -4 15 -10 15 -14z
m2377 -12 c-13 -18 -27 -38 -30 -44 -5 -9 80 15 148 42 18 7 19 6 6 -10 -20
-24 -65 -46 -96 -46 -14 0 -43 -9 -65 -20 -22 -11 -42 -20 -45 -20 -6 0 51 81
79 113 27 29 28 19 3 -15z m-2293 -4 c4 -11 0 -11 -19 2 -30 20 -31 24 -6 17
11 -3 22 -11 25 -19z m-1763 -1 c13 -16 12 -17 -3 -4 -10 7 -18 15 -18 17 0 8
8 3 21 -13z m3539 -23 c17 -41 7 -48 -19 -12 -19 27 -19 42 -1 42 4 0 13 -14
20 -30z m-1807 7 c4 3 7 -1 7 -11 0 -9 4 -15 9 -12 5 3 11 -3 14 -14 6 -25 2
-25 -26 0 -12 11 -27 18 -33 16 -7 -3 -10 3 -7 15 4 14 9 17 18 9 6 -5 15 -7
18 -3z m157 -69 c9 -3 5 -7 -12 -10 -17 -3 -26 -1 -25 6 1 6 -4 10 -11 8 -8
-1 -11 2 -7 8 4 6 13 7 23 1 9 -4 24 -10 32 -13z m210 11 c0 -5 -11 -9 -25 -9
-33 0 -33 15 0 16 14 1 25 -2 25 -7z m1936 -24 c-11 -8 -25 -15 -30 -15 -6 0
-2 7 8 15 11 8 25 15 30 15 6 0 2 -7 -8 -15z m-1951 -5 c3 -5 1 -10 -4 -10 -6
0 -11 5 -11 10 0 6 2 10 4 10 3 0 8 -4 11 -10z m-2090 -18 c-3 -3 -11 0 -18 7
-9 10 -8 11 6 5 10 -3 15 -9 12 -12z m2142 -4 c-3 -8 -6 -5 -6 6 -1 11 2 17 5
13 3 -3 4 -12 1 -19z m1377 -4 c4 -10 1 -14 -6 -12 -15 5 -23 28 -10 28 5 0
13 -7 16 -16z m-1333 -36 c16 -17 20 -19 16 -6 -3 10 -2 20 2 23 5 2 11 -4 14
-14 5 -21 -25 -41 -31 -22 -2 6 -15 11 -28 11 -23 0 -31 10 -17 23 11 12 21 8
44 -15z m-67 -13 c-4 -8 -11 -15 -16 -15 -6 0 -5 6 2 15 7 8 14 15 16 15 2 0
1 -7 -2 -15z m-599 -15 c3 -5 2 -10 -4 -10 -5 0 -13 5 -16 10 -3 6 -2 10 4 10
5 0 13 -4 16 -10z m115 -10 c0 -5 -2 -10 -4 -10 -3 0 -8 5 -11 10 -3 6 -1 10
4 10 6 0 11 -4 11 -10z m1770 -15 c-14 -16 -50 -21 -50 -6 0 9 20 17 49 20 11
1 11 -2 1 -14z m900 -15 c-6 -11 -20 -25 -33 -31 -18 -10 -17 -6 7 20 34 36
41 39 26 11z m-1950 -20 c0 -5 -2 -10 -4 -10 -3 0 -8 5 -11 10 -3 6 -1 10 4
10 6 0 11 -4 11 -10z m-451 -53 c1 -4 -5 -2 -13 5 -7 7 -11 19 -8 27 4 11 7
10 13 -5 4 -10 8 -23 8 -27z m476 33 c3 -5 1 -10 -4 -10 -6 0 -11 5 -11 10 0
6 2 10 4 10 3 0 8 -4 11 -10z m-1330 -73 c17 -15 35 -25 41 -23 6 2 11 -2 11
-10 0 -25 -18 -15 -80 48 -57 57 -47 51 28 -15z m805 63 c0 -5 -2 -10 -4 -10
-3 0 -8 5 -11 10 -3 6 -1 10 4 10 6 0 11 -4 11 -10z m2200 -10 c0 -5 -5 -10
-11 -10 -5 0 -7 5 -4 10 3 6 8 10 11 10 2 0 4 -4 4 -10z m-2845 -11 c11 -17
-1 -21 -15 -4 -8 9 -8 15 -2 15 6 0 14 -5 17 -11z m2750 1 c-3 -5 -12 -10 -18
-10 -7 0 -6 4 3 10 19 12 23 12 15 0z m135 0 c0 -5 -5 -10 -11 -10 -5 0 -7 5
-4 10 3 6 8 10 11 10 2 0 4 -4 4 -10z m-1665 -40 c3 -6 -1 -7 -9 -4 -18 7 -21
14 -7 14 6 0 13 -4 16 -10z m75 0 c0 -5 6 -9 13 -7 6 1 11 -6 11 -15 -1 -10 3
-15 8 -12 6 4 23 -8 39 -27 34 -40 30 -53 -5 -16 -14 15 -28 27 -32 27 -11 0
-54 42 -54 52 0 4 5 8 10 8 6 0 10 -4 10 -10z m1740 5 c0 -2 -10 -9 -22 -15
-22 -11 -22 -10 -4 4 21 17 26 19 26 11z m-1574 -42 c-7 -7 -26 7 -26 19 0 6
6 6 15 -2 9 -7 13 -15 11 -17z m-261 -1 c-3 -3 -11 0 -18 7 -9 10 -8 11 6 5
10 -3 15 -9 12 -12z m-561 -28 c3 -8 2 -12 -4 -9 -6 3 -10 10 -10 16 0 14 7
11 14 -7z m616 -4 c6 -11 9 -20 7 -20 -2 0 -12 9 -22 20 -10 11 -13 20 -7 20
6 0 16 -9 22 -20z m44 -19 c3 -5 -1 -11 -9 -14 -9 -4 -12 -1 -8 9 6 16 10 17
17 5z m41 -11 c3 -5 1 -10 -4 -10 -6 0 -11 5 -11 10 0 6 2 10 4 10 3 0 8 -4
11 -10z m-1025 -16 c0 -15 -10 -17 -34 -8 -24 9 -19 22 9 22 15 0 25 -6 25
-14z m1095 -3 c3 -5 1 -12 -5 -16 -5 -3 -10 1 -10 9 0 18 6 21 15 7z m895 5
c0 -3 -4 -8 -10 -11 -5 -3 -10 -1 -10 4 0 6 5 11 10 11 6 0 10 -2 10 -4z
m-2040 -21 c14 -16 10 -18 -14 -9 -9 3 -16 10 -16 15 0 14 16 11 30 -6z m610
1 c0 -3 -4 -8 -10 -11 -5 -3 -10 -1 -10 4 0 6 5 11 10 11 6 0 10 -2 10 -4z
m-480 -27 c0 -5 5 -9 11 -9 5 0 7 5 4 10 -3 6 -2 10 4 10 5 0 12 -4 15 -8 9
-16 -10 -27 -48 -28 -23 -1 -33 2 -25 7 11 6 10 9 -4 15 -28 10 -19 21 13 16
17 -2 30 -8 30 -13z m990 6 c7 -8 18 -15 25 -15 7 0 16 -7 19 -16 3 -8 10 -12
16 -9 5 3 10 0 10 -8 0 -8 7 -17 15 -21 15 -5 22 -37 8 -35 -31 5 -52 -2 -47
-16 4 -8 4 -15 2 -15 -10 0 -122 109 -117 114 3 3 27 -9 55 -28 57 -38 81 -48
88 -37 3 4 -19 26 -49 47 -52 37 -66 54 -46 54 5 0 14 -7 21 -15z m-485 -5
c-3 -5 -12 -10 -18 -10 -7 0 -6 4 3 10 19 12 23 12 15 0z m-411 -33 c0 -14 4
-24 8 -21 4 3 8 12 8 20 0 8 5 14 10 14 6 0 10 -8 10 -18 0 -10 5 -23 12 -30
9 -9 6 -12 -16 -12 -23 0 -27 -4 -23 -20 5 -21 -16 -45 -33 -35 -16 10 -12 28
5 21 8 -3 15 -1 15 4 0 6 -6 10 -12 10 -10 0 -10 2 0 9 10 6 11 18 3 50 -7 31
-6 41 2 38 7 -2 12 -15 11 -30z m112 0 c8 3 14 1 14 -4 0 -5 14 -9 32 -8 26 0
32 -4 33 -23 2 -29 -23 -65 -41 -58 -10 4 -14 -3 -15 -22 -1 -26 -1 -26 -10 6
-6 18 -16 35 -24 39 -8 3 -13 9 -10 13 3 4 -1 13 -9 19 -8 7 -12 21 -9 32 4
13 9 17 16 10 5 -5 16 -7 23 -4z m-182 -38 c-11 -18 9 -8 27 14 10 12 18 17
19 10 0 -6 -4 -14 -10 -18 -5 -3 -7 -12 -4 -19 8 -22 -44 -7 -61 17 -19 27 -8
43 16 21 10 -9 16 -21 13 -25z m749 34 c-7 -2 -21 -2 -30 0 -10 3 -4 5 12 5
17 0 24 -2 18 -5z m42 -11 c-3 -3 -11 0 -18 7 -9 10 -8 11 6 5 10 -3 15 -9 12
-12z m750 8 c-3 -5 -1 -10 3 -12 5 -1 12 -16 16 -32 6 -25 5 -28 -7 -18 -11
10 -17 9 -27 -3 -7 -8 -19 -15 -27 -15 -10 0 -14 -7 -10 -20 6 -23 4 -24 -40
-8 -24 9 -33 18 -33 35 0 17 -6 23 -22 23 -23 0 -23 0 2 20 14 11 30 18 35 16
6 -1 23 3 39 9 33 14 78 17 71 5z m-625 -20 c0 -5 -4 -10 -10 -10 -5 0 -10 5
-10 10 0 6 5 10 10 10 6 0 10 -4 10 -10z m-960 -156 c8 -10 0 -7 -18 9 -19 15
-38 27 -44 27 -6 0 -9 3 -5 6 3 4 -10 27 -30 53 -31 40 -28 38 23 -15 32 -33
66 -69 74 -80z m761 93 c1 4 1 11 0 16 -2 11 17 9 24 -3 4 -6 1 -17 -5 -25
-10 -12 -10 -15 0 -15 6 0 14 8 17 19 8 31 43 15 43 -20 0 -24 -4 -29 -26 -29
-14 0 -23 4 -20 9 4 5 -3 7 -14 4 -12 -3 -20 0 -20 6 0 7 -4 10 -9 6 -5 -3
-12 -1 -16 5 -4 6 -9 8 -13 6 -4 -2 -13 2 -20 10 -7 8 -8 14 -2 14 5 0 10 10
10 23 1 21 1 21 25 -6 14 -15 26 -24 26 -20z m109 33 c0 -5 -4 -10 -10 -10 -5
0 -10 5 -10 10 0 6 5 10 10 10 6 0 10 -4 10 -10z m450 0 c0 -5 -5 -10 -11 -10
-5 0 -7 5 -4 10 3 6 8 10 11 10 2 0 4 -4 4 -10z m52 -15 c0 -5 -5 -11 -11 -13
-6 -2 -11 4 -11 13 0 9 5 15 11 13 6 -2 11 -8 11 -13z m-1183 -11 c7 5 9 1 5
-8 -3 -9 -11 -16 -18 -16 -6 0 -5 -4 3 -9 8 -5 20 -7 28 -4 7 3 13 0 13 -6 0
-6 -7 -11 -15 -11 -22 0 -18 -19 11 -58 24 -30 31 -34 61 -29 30 5 33 4 28
-14 -6 -17 3 -24 28 -20 10 2 9 -17 -3 -24 -6 -4 -6 -15 1 -32 8 -21 1 -17
-32 20 -22 26 -46 47 -53 46 -28 -3 -37 4 -57 44 -32 62 -39 70 -56 56 -10 -9
-17 -9 -25 -1 -7 7 -8 15 -3 19 4 5 10 3 12 -4 7 -18 43 23 43 50 0 16 3 18 9
8 5 -7 14 -11 20 -7z m704 -5 c-6 -6 -18 -6 -28 -3 -18 7 -18 8 1 14 23 9 39
1 27 -11z m697 1 c0 -5 -9 -14 -20 -20 -22 -12 -27 -1 -8 18 14 14 28 16 28 2z
m-275 -10 c3 -5 1 -10 -4 -10 -6 0 -11 5 -11 10 0 6 2 10 4 10 3 0 8 -4 11
-10z m-995 -4 c0 -2 -8 -10 -17 -17 -16 -13 -17 -12 -4 4 13 16 21 21 21 13z
m1100 -11 c0 -8 -7 -15 -16 -15 -14 0 -14 3 -4 15 7 8 14 15 16 15 2 0 4 -7 4
-15z m-1332 -13 c6 -18 -15 -14 -22 4 -4 10 -1 14 6 12 6 -2 14 -10 16 -16z
m1456 -45 c-32 -34 -77 -76 -99 -92 -25 -18 -6 6 50 63 100 103 142 127 49 29z
m-1500 38 c-3 -8 4 -29 17 -47 22 -32 22 -32 1 -14 -24 21 -36 51 -27 66 9 15
15 12 9 -5z m1266 -6 c0 -6 -4 -7 -10 -4 -5 3 -10 11 -10 16 0 6 5 7 10 4 6
-3 10 -11 10 -16z m-226 -5 c8 -21 8 -24 -3 -24 -5 0 -11 9 -14 20 -6 24 8 27
17 4z m40 -34 c-13 -8 -24 -18 -24 -23 0 -4 -5 -5 -10 -2 -13 8 6 35 25 35 9
0 11 8 8 23 -5 22 -5 22 10 2 14 -19 14 -21 -9 -35z m-810 24 c9 -24 7 -29 -5
-17 -6 6 -18 9 -25 6 -8 -3 -14 -1 -14 5 0 9 15 19 31 21 4 1 10 -6 13 -15z
m581 -16 c19 -21 23 -29 11 -25 -10 4 -29 10 -42 13 -23 6 -31 23 -17 37 11
12 19 8 48 -25z m555 16 c-15 -17 -17 -17 -23 -1 -3 8 3 14 15 14 16 2 17 -1
8 -13z m-106 -32 c-1 -7 -2 -19 -2 -28 -1 -10 -8 -14 -17 -10 -10 4 -20 -3
-27 -19 -6 -14 -15 -25 -21 -25 -5 0 -6 -8 -3 -17 4 -10 4 -14 0 -11 -3 4 -19
1 -35 -7 -36 -19 -39 -19 -39 5 0 15 9 22 30 26 16 4 35 13 41 20 13 16 14 15
-25 20 -35 4 -45 12 -27 23 8 5 24 3 39 -5 35 -18 45 -8 24 24 -9 14 -11 23
-4 19 6 -5 12 -4 12 2 0 5 11 6 28 2 15 -4 27 -13 26 -19z m131 8 c-3 -5 -11
-10 -16 -10 -6 0 -7 5 -4 10 3 6 11 10 16 10 6 0 7 -4 4 -10z m-1205 -11 c0
-11 -37 -12 -43 -1 -3 4 6 8 19 8 13 1 24 -2 24 -7z m685 1 c3 -5 1 -10 -4
-10 -6 0 -11 5 -11 10 0 6 2 10 4 10 3 0 8 -4 11 -10z m205 -10 c0 -5 -5 -10
-11 -10 -5 0 -7 5 -4 10 3 6 8 10 11 10 2 0 4 -4 4 -10z m38 -11 c3 -12 2 -12
-6 0 -8 11 -10 11 -15 0 -4 -10 -6 -8 -6 4 -1 21 21 18 27 -4z m204 -1 c-7 -7
-12 -8 -12 -2 0 14 12 26 19 19 2 -3 -1 -11 -7 -17z m-207 -38 c3 -5 1 -10 -4
-10 -6 0 -11 5 -11 10 0 6 2 10 4 10 3 0 8 -4 11 -10z m165 -45 c0 -5 -5 -3
-10 5 -5 8 -10 20 -10 25 0 6 5 3 10 -5 5 -8 10 -19 10 -25z m-172 -23 c6 -18
-15 -14 -22 4 -4 10 -1 14 6 12 6 -2 14 -10 16 -16z m-498 -17 c0 -8 -2 -15
-4 -15 -2 0 -6 7 -10 15 -3 8 -1 15 4 15 6 0 10 -7 10 -15z m120 -35 c0 -13
-1 -13 -10 0 -5 8 -10 11 -10 5 -1 -12 -30 25 -30 37 0 5 11 1 25 -9 13 -10
24 -25 25 -33z m-80 36 c0 -3 -4 -8 -10 -11 -5 -3 -10 -1 -10 4 0 6 5 11 10
11 6 0 10 -2 10 -4z m360 -66 c0 -11 -4 -20 -9 -20 -5 0 -7 9 -4 20 3 11 7 20
9 20 2 0 4 -9 4 -20z m-2562 -73 c2 -11 -3 -17 -17 -17 -25 0 -38 19 -20 31
19 12 33 6 37 -14z m1472 -7 c8 -4 31 -15 51 -24 29 -14 40 -15 61 -5 23 10
31 8 73 -21 25 -17 44 -34 41 -37 -8 -9 28 -69 62 -103 29 -29 45 -69 22 -55
-6 3 -7 -1 -4 -9 3 -9 11 -13 17 -9 6 4 8 0 4 -9 -3 -9 1 -28 9 -43 8 -16 11
-33 5 -42 -6 -11 -18 6 -44 62 -53 111 -144 200 -252 245 -72 30 -90 33 -180
34 -96 1 -103 -1 -179 -37 -58 -27 -96 -55 -143 -103 -63 -64 -66 -50 -6 25
16 19 23 32 17 28 -7 -4 -9 2 -6 20 4 20 2 24 -9 19 -8 -4 -1 4 14 18 15 14
32 26 36 26 14 0 19 -38 7 -50 -6 -6 16 1 49 16 33 16 92 36 130 45 72 17 197
22 225 9z m1006 -88 c-11 -10 -15 4 -8 28 l7 25 3 -23 c2 -13 1 -26 -2 -30z
m-1176 28 c0 -5 -7 -10 -16 -10 -8 0 -12 5 -9 10 3 6 10 10 16 10 5 0 9 -4 9
-10z m3715 -21 c107 -40 194 -159 196 -270 3 -110 -24 -172 -105 -247 -67 -60
-133 -85 -226 -84 -294 2 -427 340 -209 536 93 84 226 109 344 65z m-3075 -9
c0 -5 -2 -10 -4 -10 -3 0 -8 5 -11 10 -3 6 -1 10 4 10 6 0 11 -4 11 -10z m420
0 c0 -5 -5 -10 -11 -10 -5 0 -7 5 -4 10 3 6 8 10 11 10 2 0 4 -4 4 -10z m469
-4 c7 -8 36 -26 65 -40 56 -27 146 -100 146 -118 0 -6 -18 6 -40 25 -66 60
-106 76 -188 72 -91 -3 -180 -44 -242 -111 -23 -25 -44 -43 -47 -41 -2 3 5 15
17 27 17 17 19 24 10 30 -9 6 -6 11 10 20 15 8 19 15 11 19 -8 5 -6 15 8 33
11 14 18 28 15 31 -6 6 66 45 106 58 43 13 117 10 129 -5z m-1407 -25 c-10 -6
-8 -10 10 -13 12 -3 32 -9 42 -13 14 -6 17 -5 12 4 -4 7 16 -1 44 -16 50 -27
138 -112 161 -155 11 -20 11 -20 -14 -2 -14 11 -23 22 -21 26 7 11 -87 87
-142 114 -29 14 -88 31 -131 39 l-78 12 55 5 c30 2 60 5 65 6 6 1 4 -2 -3 -7z
m210 -62 c44 -43 47 -48 13 -18 -27 24 -61 52 -75 61 -14 9 -19 17 -13 17 7 1
41 -27 75 -60z m608 35 c0 -8 -4 -12 -10 -9 -5 3 -10 13 -10 21 0 8 5 12 10 9
6 -3 10 -13 10 -21z m176 -12 c-18 -16 -18 -16 -6 6 6 13 14 21 18 18 3 -4 -2
-14 -12 -24z m-376 -12 c0 -9 -31 -23 -37 -16 -3 3 1 11 8 19 14 15 29 13 29
-3z m321 1 c7 11 9 11 9 -1 0 -22 -20 -40 -36 -33 -11 4 -11 10 -2 26 8 16 13
18 16 8 4 -11 6 -11 13 0z m32 -31 c-5 -19 -23 -29 -23 -12 0 7 20 32 26 32 1
0 0 -9 -3 -20z m422 9 c11 -17 -1 -21 -15 -4 -8 9 -8 15 -2 15 6 0 14 -5 17
-11z m76 -6 c13 -16 12 -17 -3 -4 -17 13 -22 21 -14 21 2 0 10 -8 17 -17z
m-145 -18 c-23 -17 -36 -19 -36 -6 0 11 18 19 40 20 11 0 10 -3 -4 -14z m197
-36 c62 -32 94 -56 118 -92 l22 -32 -29 27 c-72 66 -226 110 -263 76 -11 -10
-12 -10 -7 -1 5 9 2 11 -8 7 -9 -3 -13 -11 -9 -17 4 -6 0 -8 -10 -4 -9 3 -17
3 -19 -1 -7 -16 -108 -71 -108 -58 0 20 37 49 51 40 7 -4 10 -3 6 3 -15 23
102 71 176 72 21 1 57 -9 80 -20z m57 1 c0 -5 -4 -10 -10 -10 -5 0 -10 5 -10
10 0 6 5 10 10 10 6 0 10 -4 10 -10z m-400 -50 c0 -5 -5 -10 -11 -10 -5 0 -7
5 -4 10 3 6 8 10 11 10 2 0 4 -4 4 -10z m-2872 -28 c6 -18 -15 -14 -22 4 -4
10 -1 14 6 12 6 -2 14 -10 16 -16z m1759 -28 c8 -21 -13 -42 -28 -27 -13 13
-5 43 11 43 6 0 13 -7 17 -16z m-1762 -7 c21 -1 35 -14 35 -35 0 -8 -11 -6
-36 8 -33 17 -40 18 -70 5 -38 -16 -42 -11 -17 17 13 14 24 17 43 12 14 -4 34
-7 45 -7z m-16 -53 c40 -30 76 -72 67 -81 -3 -3 -17 8 -31 25 -14 16 -43 37
-65 46 -23 9 -38 21 -35 26 10 16 24 12 64 -16z m1916 5 c-10 -15 -25 -10 -19
6 4 8 10 12 15 9 5 -3 7 -10 4 -15z m-17 -92 c4 -20 -25 -34 -40 -19 -15 15
-1 44 19 40 10 -2 19 -11 21 -21z m1332 9 c0 -7 -7 -20 -16 -27 -14 -11 -18
-10 -30 5 -7 11 -11 23 -8 27 9 15 54 10 54 -5z m-1875 -106 c-3 -5 -12 -10
-18 -10 -7 0 -6 4 3 10 19 12 23 12 15 0z m1525 -20 c0 -24 -26 -38 -42 -22
-16 16 -2 42 22 42 13 0 20 -7 20 -20z m1362 -329 c7 -12 3 -45 -16 -124 -15
-60 -33 -122 -41 -140 -15 -35 -112 -285 -127 -328 -7 -19 -15 -25 -28 -22
-22 6 -36 -15 -21 -30 17 -17 13 -27 -10 -24 -11 2 -26 14 -32 27 -7 14 -26
27 -47 33 -19 5 -52 24 -73 43 -21 19 -49 40 -63 46 -33 15 -30 28 7 28 28 0
31 2 25 25 -4 14 -2 25 2 25 5 0 21 11 36 25 15 14 36 25 46 25 24 0 60 29 60
48 0 10 7 12 26 8 36 -9 67 2 60 21 -4 9 -1 21 4 29 6 7 13 33 14 57 4 52 13
70 29 61 7 -4 4 1 -5 11 -21 23 -57 13 -38 -10 18 -22 3 -18 -22 5 -12 10 -25
17 -29 14 -16 -10 -21 19 -5 34 9 9 16 12 16 6 0 -5 8 -10 18 -10 15 0 18 12
19 94 2 86 1 93 -16 87 -15 -4 -17 -1 -13 20 3 18 0 25 -11 25 -21 0 -30 29
-12 36 9 4 22 1 29 -5 10 -9 16 -9 21 -1 4 6 13 9 21 6 23 -9 27 15 5 30 -12
8 -21 22 -21 31 0 9 -3 13 -7 10 -3 -4 -11 3 -17 16 -6 12 -22 27 -34 32 -16
7 -21 16 -18 30 3 11 6 26 6 33 0 11 230 -276 262 -327z m-2892 314 c0 -15
-43 -12 -48 3 -3 10 4 13 22 10 15 -2 26 -7 26 -13z m75 -35 c8 -13 -15 -13
-35 0 -12 8 -11 10 7 10 12 0 25 -4 28 -10z m411 -25 c4 -8 3 -23 0 -32 -6
-15 -8 -15 -23 -1 -16 17 -12 48 7 48 6 0 13 -7 16 -15z m2182 -58 c11 -9 11
-13 -4 -24 -10 -7 -28 -13 -40 -13 -12 0 -25 -6 -28 -12 -3 -7 -3 3 0 22 4 19
8 38 10 42 5 8 45 -2 62 -15z m-441 -13 c-9 -9 -28 6 -21 18 4 6 10 6 17 -1 6
-6 8 -13 4 -17z m-262 6 c3 -5 13 -6 22 -3 11 4 14 3 9 -5 -4 -7 -2 -12 4 -12
16 0 8 -41 -10 -53 -23 -13 -90 17 -90 40 0 35 49 59 65 33z m-2420 -20 c-3
-5 -12 -10 -18 -10 -7 0 -6 4 3 10 19 12 23 12 15 0z m2642 -27 c-9 -9 -19
-14 -23 -11 -10 10 6 28 24 28 15 0 15 -1 -1 -17z m47 -9 c9 -24 2 -26 -12 -4
-7 11 -8 20 -3 20 5 0 12 -7 15 -16z m386 -44 c0 -9 -39 -25 -45 -18 -2 2 -2
14 2 26 4 18 9 20 24 11 10 -5 19 -14 19 -19z m-1458 -40 c11 0 20 -10 24 -27
4 -16 13 -32 20 -38 16 -12 47 -96 38 -104 -9 -10 -34 31 -34 57 0 17 -4 22
-14 19 -8 -3 -17 1 -20 9 -3 8 -14 14 -25 14 -11 0 -23 5 -26 10 -4 6 -10 8
-15 5 -10 -6 -25 13 -34 42 -6 18 -4 21 13 18 11 -2 23 1 27 6 4 7 10 7 17 0
6 -6 19 -11 29 -11z m-2648 -62 c24 -18 51 -44 62 -58 14 -18 2 -13 -46 21
-57 41 -84 69 -65 69 3 0 25 -15 49 -32z m4106 12 c-6 -11 -16 -20 -22 -20 -6
0 -3 9 7 20 10 11 20 20 22 20 2 0 -1 -9 -7 -20z m1278 -10 l44 0 -26 -31
c-14 -17 -26 -38 -26 -47 -1 -39 -120 -140 -120 -102 0 6 -5 10 -11 10 -5 0
-7 -4 -4 -10 3 -5 0 -10 -8 -10 -8 0 -22 -9 -32 -20 -21 -24 -32 -25 -32 -6 0
8 6 12 14 9 8 -3 13 2 13 12 0 12 -5 15 -22 9 -13 -3 -23 -7 -23 -8 -17 -44
-26 -55 -42 -49 -10 3 -15 3 -11 -2 4 -4 0 -14 -10 -21 -30 -23 -34 -15 -8 19
15 19 26 43 26 53 0 23 27 64 42 64 5 0 30 18 55 40 25 22 50 40 54 40 5 0 16
14 25 31 12 24 20 30 37 25 12 -3 42 -6 65 -6z m-2698 -87 c0 -3 -9 2 -19 11
-11 10 -24 15 -29 12 -6 -3 -8 3 -5 14 5 19 6 19 29 -5 13 -14 24 -29 24 -32z
m1390 47 c0 -5 -7 -10 -16 -10 -8 0 -12 5 -9 10 3 6 10 10 16 10 5 0 9 -4 9
-10z m-370 -40 c0 -5 -7 -7 -15 -4 -8 4 -15 8 -15 10 0 2 7 4 15 4 8 0 15 -4
15 -10z m-1026 -21 c25 -12 42 -48 67 -144 12 -48 55 -135 66 -135 3 0 3 9 0
20 -8 33 9 14 43 -46 44 -79 34 -96 -18 -29 -24 30 -58 66 -76 80 -43 33 -173
67 -198 52 -13 -9 -21 -8 -30 2 -11 10 -9 12 7 9 29 -5 41 69 15 97 -18 21
-17 50 2 39 6 -4 8 -1 6 7 -3 8 -11 13 -17 11 -18 -4 -26 29 -10 39 20 12 113
11 143 -2z m933 -4 c0 -8 -6 -16 -14 -19 -7 -3 -13 1 -13 8 0 8 6 17 13 19 6
3 12 6 13 6 0 1 1 -6 1 -14z m-1127 -25 c0 -5 -10 -10 -22 -9 -22 0 -22 1 -3
9 11 5 21 9 23 9 1 1 2 -3 2 -9z m270 -31 c0 -10 5 -19 10 -19 6 0 10 -6 9
-12 -1 -7 5 -32 15 -55 13 -31 22 -40 34 -36 13 4 14 3 3 -5 -8 -6 -10 -15 -6
-22 19 -30 -14 2 -40 39 -16 25 -25 48 -22 60 3 12 -1 22 -10 25 -8 4 -13 13
-9 21 3 8 1 15 -4 15 -6 0 -10 4 -10 10 0 5 7 7 15 4 8 -4 15 -15 15 -25z
m1368 13 c2 -7 -3 -12 -12 -12 -9 0 -16 7 -16 16 0 17 22 14 28 -4z m-708 -47
c0 -14 -4 -25 -10 -25 -11 0 -14 33 -3 43 11 11 13 8 13 -18z m680 21 c0 -2 3
-11 6 -20 4 -11 0 -16 -14 -16 -23 0 -36 15 -27 30 6 10 35 14 35 6z m-255
-16 c3 -5 -1 -10 -9 -10 -8 0 -18 5 -21 10 -3 6 1 10 9 10 8 0 18 -4 21 -10z
m-3815 -14 c0 -3 -4 -8 -10 -11 -5 -3 -10 -1 -10 4 0 6 5 11 10 11 6 0 10 -2
10 -4z m3508 -52 c-4 -3 -12 5 -18 18 -12 22 -12 22 6 6 10 -10 15 -20 12 -24z
m-3468 16 c0 -5 -12 -10 -27 -10 -22 0 -25 2 -13 10 20 13 40 13 40 0z m2450
-20 c8 -5 12 -11 10 -14 -3 -2 -14 2 -24 10 -22 15 -10 19 14 4z m855 -91
c-27 -76 -57 -117 -109 -150 -28 -18 -60 -32 -71 -31 -11 1 -23 -4 -27 -11 -4
-7 -6 -3 -5 11 0 12 7 22 14 22 8 0 16 6 19 14 3 8 12 12 20 9 8 -3 14 1 14 8
0 11 3 11 10 -1 5 -8 10 -10 10 -4 0 7 7 15 16 18 8 3 12 2 9 -4 -3 -6 -2 -10
3 -10 5 0 26 33 47 73 55 105 75 128 50 56z m-626 -24 c29 -25 68 -63 86 -85
28 -34 33 -45 25 -65 -8 -20 -6 -23 7 -18 10 4 14 2 10 -4 -4 -6 1 -14 10 -17
11 -5 13 -10 7 -14 -6 -4 -27 -72 -48 -151 -31 -122 -85 -274 -72 -203 2 12 0
22 -5 22 -5 0 -4 12 1 26 17 43 10 41 -14 -4 l-22 -44 -13 44 c-7 24 -15 49
-17 57 -2 7 -11 10 -19 7 -8 -3 -15 0 -15 6 0 6 -2 9 -5 6 -8 -8 6 -39 15 -33
4 3 11 -2 14 -11 4 -10 2 -13 -6 -8 -7 4 -2 -6 10 -23 25 -36 42 -101 23 -89
-6 4 -9 11 -6 15 9 16 -39 67 -60 63 -16 -3 -18 -1 -7 9 15 16 16 33 1 23 -8
-4 -9 1 -4 16 5 16 0 29 -20 50 -23 24 -26 33 -22 86 l3 59 2 -61 c1 -42 6
-64 16 -67 10 -4 15 9 20 51 3 31 7 66 9 77 1 12 -3 19 -10 18 -7 -2 -13 2
-13 8 0 6 7 9 15 6 8 -4 17 -2 20 3 4 6 0 10 -7 11 -7 0 -4 4 7 9 19 7 18 8
-6 15 -30 7 -41 40 -30 84 6 20 14 26 35 26 15 1 31 7 37 15 5 8 9 10 9 5 0
-6 8 -11 18 -11 23 0 25 21 3 23 -85 6 -152 17 -136 23 13 4 15 9 7 14 -19 11
-14 22 14 35 20 9 30 9 40 0 8 -7 17 -9 20 -6 7 7 -49 37 -69 37 -7 0 -30 -17
-50 -37 -27 -27 -34 -39 -25 -45 10 -5 8 -8 -4 -8 -20 0 -25 26 -6 32 6 2 12
15 13 28 2 29 25 38 106 39 52 1 59 -2 108 -44z m121 12 c0 -5 -4 -5 -10 -2
-5 3 -10 14 -10 23 0 15 2 15 10 2 5 -8 10 -19 10 -23z m565 14 c3 -5 1 -12
-5 -16 -5 -3 -10 1 -10 9 0 18 6 21 15 7z m-135 -29 c0 -12 -61 -72 -73 -72
-6 0 7 18 28 40 41 42 45 45 45 32z m359 -75 l31 -52 -33 39 c-19 21 -42 53
-52 70 l-18 31 20 -18 c11 -10 35 -41 52 -70z m-664 12 l20 -34 -53 44 c-28
24 -52 45 -52 47 0 2 15 -3 33 -10 17 -8 41 -29 52 -47z m441 3 c-12 -11 -37
24 -30 42 6 16 9 15 21 -9 8 -15 12 -29 9 -33z m-401 8 c10 -22 15 -43 12 -46
-4 -4 -11 5 -17 20 -5 15 -15 36 -20 47 -6 10 -7 19 -2 19 5 0 17 -18 27 -40z
m935 20 c0 -5 -7 -10 -16 -10 -8 0 -12 5 -9 10 3 6 10 10 16 10 5 0 9 -4 9
-10z m-3070 -49 c0 -5 -12 -16 -26 -26 -25 -16 -25 -16 -15 3 9 17 19 25 39
31 1 1 2 -3 2 -8z m2059 -25 c8 -6 23 -11 35 -11 12 0 26 -11 33 -25 14 -28 1
-39 -22 -20 -12 10 -16 8 -23 -10 l-8 -22 -15 23 c-17 26 -30 56 -35 77 -2 12
9 9 35 -12z m711 -44 c0 -13 -3 -12 -15 4 -19 25 -19 40 0 24 8 -7 15 -20 15
-28z m280 -38 c29 -25 68 -84 54 -84 -3 0 -15 12 -27 26 -11 15 -35 33 -54 40
-18 8 -33 21 -33 29 0 23 25 18 60 -11z m-900 -4 c0 -5 -4 -10 -10 -10 -5 0
-10 5 -10 10 0 6 5 10 10 10 6 0 10 -4 10 -10z m100 0 c-8 -5 -19 -10 -25 -10
-5 0 -3 5 5 10 8 5 20 10 25 10 6 0 3 -5 -5 -10z m286 -22 c15 -19 16 -20 2
-9 -48 37 -1 -88 55 -146 17 -18 28 -35 25 -38 -8 -8 -77 79 -93 119 -13 31
-21 96 -12 96 2 0 12 -10 23 -22z m472 -81 c2 -10 -3 -17 -12 -17 -10 0 -16 9
-16 21 0 24 23 21 28 -4z m-807 -50 c-8 -8 -11 -6 -11 6 0 9 -6 17 -12 18 -7
0 -4 4 7 8 23 9 34 -14 16 -32z m284 23 c3 -5 1 -10 -4 -10 -6 0 -11 5 -11 10
0 6 2 10 4 10 3 0 8 -4 11 -10z m-426 -21 c41 -14 40 -30 -1 -18 -17 5 -32 8
-33 6 -20 -38 -88 -202 -88 -212 0 -8 -4 -15 -9 -15 -5 0 -6 -4 -3 -10 3 -5 1
-10 -5 -10 -6 0 -9 -4 -6 -9 9 -14 -12 -63 -24 -56 -5 3 -10 1 -10 -6 0 -7 -3
-10 -6 -7 -11 11 19 93 79 220 33 70 64 128 67 128 4 0 21 -5 39 -11z m341
-19 c0 -5 -2 -10 -4 -10 -3 0 -8 5 -11 10 -3 6 -1 10 4 10 6 0 11 -4 11 -10z
m-119 -37 c-12 -20 -14 -14 -5 12 4 9 9 14 11 11 3 -2 0 -13 -6 -23z m-574
-60 c-3 -10 -5 -4 -5 12 0 17 2 24 5 18 2 -7 2 -21 0 -30z m559 -71 c-17 -16
-18 -16 -5 5 7 12 15 20 18 17 3 -2 -3 -12 -13 -22z m965 -59 c58 -64 88 -122
89 -169 0 -42 -7 -46 -35 -18 -19 19 -35 24 -73 24 -46 0 -51 2 -65 33 -9 17
-29 40 -46 50 -17 10 -31 22 -31 26 0 12 90 111 100 111 4 0 32 -26 61 -57z
m-1277 -93 c-10 -28 -24 -56 -31 -61 -7 -6 -1 17 12 52 14 35 25 65 25 68 0 2
3 2 6 -2 4 -3 -2 -29 -12 -57z m-87 -32 c-3 -8 -6 -5 -6 6 -1 11 2 17 5 13 3
-3 4 -12 1 -19z m433 -40 c0 -4 -4 -8 -10 -8 -5 0 -10 4 -10 9 0 5 -3 18 -6
28 -5 16 -4 16 10 -1 9 -11 16 -23 16 -28z m1527 -145 c-3 -10 -5 -4 -5 12 0
17 2 24 5 18 2 -7 2 -21 0 -30z m-5388 -142 c-3 -6 -10 -7 -18 -2 -7 5 -10 14
-6 21 9 14 29 -2 24 -19z m-294 -47 c25 -10 -2 -24 -45 -24 -33 1 -34 2 -16
15 22 16 36 18 61 9z m5085 -36 c-1 -47 -29 -114 -30 -70 0 26 -34 30 -64 7
-26 -20 -36 -19 -36 3 0 21 41 62 85 85 43 23 45 22 45 -25z m-4008 3 c4 -3 3
-13 -2 -21 -8 -12 -12 -11 -30 7 -11 12 -20 25 -20 28 0 7 41 -4 52 -14z m155
-27 c-3 -3 -12 -4 -19 -1 -8 3 -5 6 6 6 11 1 17 -2 13 -5z m38 -24 c3 -5 -1
-10 -10 -10 -9 0 -13 5 -10 10 3 6 8 10 10 10 2 0 7 -4 10 -10z m-114 -15 c-1
-15 -24 -12 -29 3 -3 9 2 13 12 10 10 -1 17 -7 17 -13z m-851 -41 c0 -8 -5
-12 -10 -9 -6 4 -8 11 -5 16 9 14 15 11 15 -7z m4640 2 c0 -3 -4 -8 -10 -11
-5 -3 -10 -1 -10 4 0 6 5 11 10 11 6 0 10 -2 10 -4z m96 -43 l-14 -40 116 -36
c69 -22 144 -53 182 -76 100 -62 182 -101 213 -101 15 0 27 -4 27 -10 0 -5 -9
-10 -19 -10 -43 0 -28 -21 37 -54 79 -40 108 -66 73 -66 -26 0 -76 24 -113 55
-24 21 -123 43 -135 31 -3 -3 21 -17 53 -32 115 -52 144 -67 144 -75 0 -14
-20 -11 -103 17 -43 14 -91 37 -106 50 -33 28 -48 30 -71 9 -9 -8 -53 -19
-103 -24 -47 -6 -96 -15 -108 -21 -15 -9 -28 -9 -48 0 -18 7 -36 8 -52 2 -28
-11 -84 12 -73 30 5 7 0 9 -14 6 -25 -7 -58 14 -48 30 4 7 16 12 27 12 11 0
19 7 19 18 0 9 7 25 14 35 12 16 16 16 49 2 20 -8 47 -15 59 -15 17 1 7 9 -34
31 -56 28 -80 57 -37 44 18 -6 19 -5 10 14 -9 16 -8 25 6 40 9 11 20 18 25 15
13 -8 20 20 10 46 -8 22 -9 22 -25 -13 -21 -43 -110 -132 -116 -114 -2 7 -9
15 -15 19 -8 5 -7 11 2 20 9 9 12 9 12 -5 0 -30 18 -18 30 21 7 20 27 51 44
67 17 17 45 52 61 77 16 26 31 46 32 44 2 -2 -3 -21 -11 -43z m-128 -2 c3 -8
-1 -12 -9 -9 -7 2 -15 10 -17 17 -3 8 1 12 9 9 7 -2 15 -10 17 -17z m1284 3
c46 -8 42 -21 -7 -19 -28 1 -35 -3 -35 -19 0 -11 -3 -16 -7 -12 -4 4 -18 -10
-30 -31 -21 -33 -23 -35 -17 -10 4 18 2 27 -6 27 -6 0 -9 -4 -6 -9 4 -5 3 -17
-1 -27 -6 -15 -8 -14 -16 7 -6 13 -9 28 -8 32 1 5 -3 6 -9 2 -8 -5 -8 -11 0
-20 8 -9 5 -14 -12 -17 -59 -10 -83 22 -42 56 34 27 113 56 139 50 11 -2 37
-7 57 -10z m-1334 -33 c3 -8 -1 -12 -9 -9 -7 2 -15 10 -17 17 -3 8 1 12 9 9 7
-2 15 -10 17 -17z m1099 -23 c-3 -7 -5 -2 -5 12 0 14 2 19 5 13 2 -7 2 -19 0
-25z m-1132 -28 c3 -5 -1 -10 -9 -10 -9 0 -16 5 -16 10 0 6 4 10 9 10 6 0 13
-4 16 -10z m25 -132 c0 -16 -39 -67 -40 -52 0 16 24 64 33 64 4 0 7 -6 7 -12z
m-5000 -118 c0 -5 -4 -10 -10 -10 -5 0 -10 5 -10 10 0 6 5 10 10 10 6 0 10 -4
10 -10z m375 -50 c-31 -32 -112 -76 -122 -66 -3 3 3 9 13 13 10 3 22 11 25 16
6 8 99 65 108 66 3 1 -8 -13 -24 -29z m410 10 c3 -5 2 -10 -4 -10 -5 0 -13 5
-16 10 -3 6 -2 10 4 10 5 0 13 -4 16 -10z m-335 -26 c0 -6 -118 -84 -137 -91
-14 -5 -12 1 7 22 39 43 100 84 116 78 8 -3 14 -7 14 -9z m80 2 c0 -3 -4 -8
-10 -11 -5 -3 -10 -1 -10 4 0 6 5 11 10 11 6 0 10 -2 10 -4z m360 -6 c0 -5 -4
-10 -10 -10 -5 0 -10 5 -10 10 0 6 5 10 10 10 6 0 10 -4 10 -10z m-670 -19 c0
-14 -18 -23 -31 -15 -8 4 -7 9 2 15 18 11 29 11 29 0z m5469 -65 c42 -19 90
-38 106 -41 17 -4 39 -17 50 -30 11 -12 61 -56 110 -97 50 -42 101 -87 114
-101 25 -28 20 -51 -9 -42 -12 4 -20 0 -22 -10 -2 -12 -23 -2 -85 44 -46 34
-83 66 -83 72 0 7 -22 36 -50 65 -27 29 -50 57 -50 62 0 6 -17 17 -37 27 -72
31 -158 84 -139 85 10 0 53 -15 95 -34z m-220 -20 c15 -16 19 -26 11 -26 -9 0
-8 -6 5 -20 14 -15 21 -17 32 -9 11 10 11 15 -3 30 -19 21 -6 26 15 7 11 -11
13 -10 8 5 -4 10 27 -10 69 -45 41 -35 91 -76 111 -91 20 -15 53 -50 72 -77
20 -27 63 -69 96 -93 33 -25 70 -56 83 -69 25 -27 175 -299 168 -305 -12 -12
-95 60 -96 82 -1 16 -129 149 -137 142 -4 -4 19 -34 51 -66 32 -33 57 -64 54
-71 -2 -6 -44 31 -95 83 -50 52 -115 110 -144 130 -62 41 -157 134 -104 102
17 -10 48 -32 70 -50 81 -64 65 -45 -92 112 -88 88 -168 165 -177 170 -10 5
-18 16 -19 24 -4 25 -18 39 -37 39 -10 0 -22 5 -26 11 -4 8 0 9 15 4 17 -5 20
-3 14 11 -5 13 -3 15 13 6 10 -6 30 -22 43 -36z m-519 18 c0 -17 -22 -14 -28
4 -2 7 3 12 12 12 9 0 16 -7 16 -16z m-4701 -13 c18 -12 7 -27 -28 -39 -26 -9
-29 -8 -26 9 8 39 25 48 54 30z m76 -81 c-3 -5 -11 -10 -16 -10 -6 0 -7 5 -4
10 3 6 11 10 16 10 6 0 7 -4 4 -10z m4907 -10 c7 -11 18 -20 25 -20 7 0 29
-11 49 -25 42 -28 56 -31 48 -11 -3 8 -23 22 -45 30 -21 9 -39 23 -39 31 0 19
10 19 35 1 11 -7 32 -16 47 -20 28 -6 144 -96 236 -181 52 -48 96 -120 121
-196 12 -38 45 -79 62 -79 6 0 7 5 4 10 -3 6 -2 10 3 10 9 0 128 -139 157
-184 10 -14 13 -26 7 -26 -6 0 -13 4 -17 9 -3 5 -18 12 -33 16 -40 8 -117 79
-149 136 -17 29 -35 49 -45 49 -21 0 -23 -11 -7 -27 13 -13 4 -33 -15 -33 -7
0 -25 13 -40 28 -23 25 -25 30 -12 42 9 7 26 10 41 6 18 -5 25 -2 25 9 0 17
-50 21 -66 5 -14 -14 -36 -5 -52 20 -10 17 -8 21 18 35 43 22 73 20 65 -5 -7
-22 -5 -23 19 -14 27 10 -81 164 -116 164 -22 0 -23 -7 -2 -28 22 -22 2 -28
-37 -12 l-30 13 27 28 c24 25 25 28 8 36 -11 5 -25 8 -31 7 -7 -1 -18 -2 -24
-3 -6 0 -9 -8 -5 -16 3 -9 0 -15 -10 -15 -9 0 -14 5 -12 12 4 11 -37 43 -192
153 -25 17 -46 39 -48 48 -5 23 15 21 30 -3z m274 -51 c7 -15 14 -31 14 -36 0
-13 -79 71 -80 85 0 20 49 -16 66 -49z m-417 21 c9 0 11 -9 6 -28 -7 -32 21
-76 55 -87 11 -4 20 -13 20 -22 0 -14 86 -123 119 -150 13 -11 12 -13 -4 -13
-10 0 -37 20 -59 45 -23 25 -47 45 -54 45 -7 0 -11 3 -10 8 4 13 -43 93 -57
99 -8 3 -15 10 -15 16 0 6 -16 28 -36 48 -31 32 -34 39 -23 52 12 13 16 13 30
1 8 -8 21 -14 28 -14z m-4816 3 c-13 -8 -23 -22 -23 -29 0 -10 -12 -14 -37
-13 -34 0 -36 1 -15 10 13 5 35 18 49 29 14 11 31 20 37 19 6 0 1 -7 -11 -16z
m107 -33 c-6 -12 -16 -17 -27 -13 -14 6 -14 8 3 20 26 19 36 16 24 -7z m4574
-59 c3 -5 -1 -11 -9 -15 -15 -6 -29 7 -18 18 9 9 21 8 27 -3z m-4696 -76 c-3
-3 -9 2 -12 12 -6 14 -5 15 5 6 7 -7 10 -15 7 -18z m4996 9 c4 -10 1 -14 -6
-12 -15 5 -23 28 -10 28 5 0 13 -7 16 -16z m129 -95 c22 -24 22 -38 -4 -65
-12 -13 -27 -34 -33 -46 -7 -14 -21 -23 -35 -23 -37 0 -35 17 4 43 39 25 42
34 20 56 -8 8 -15 24 -15 36 0 12 -10 25 -25 32 -25 11 -30 19 -19 31 7 7 81
-37 107 -64z m-245 -15 c2 -69 -13 -55 -21 19 -3 33 -1 47 7 44 6 -2 12 -30
14 -63z m-1444 34 c8 -33 7 -48 -4 -48 -5 0 -10 11 -10 25 0 13 -8 29 -17 34
-16 9 -16 10 3 11 14 0 24 -8 28 -22z m1916 -23 c0 -9 -6 -12 -15 -9 -8 4 -15
10 -15 15 0 5 7 9 15 9 8 0 15 -7 15 -15z m-5310 -5 c0 -5 -4 -10 -10 -10 -5
0 -10 5 -10 10 0 6 5 10 10 10 6 0 10 -4 10 -10z m4930 -22 c29 -21 42 -54 18
-46 -13 5 -64 68 -54 68 4 0 20 -10 36 -22z m292 7 c0 -5 -5 -11 -11 -13 -6
-2 -11 4 -11 13 0 9 5 15 11 13 6 -2 11 -8 11 -13z m-442 -5 c0 -5 -4 -10 -9
-10 -6 0 -13 5 -16 10 -3 6 1 10 9 10 9 0 16 -4 16 -10z m-4285 -79 c-3 -6
-11 -8 -17 -5 -6 4 -5 9 3 15 16 10 23 4 14 -10z m4637 -12 c9 -27 14 -30 39
-25 25 5 29 3 29 -18 0 -31 -17 -43 -65 -44 -56 -2 -71 4 -70 31 1 22 40 87
51 87 3 0 10 -14 16 -31z m-1769 -6 c-7 -2 -21 -2 -30 0 -10 3 -4 5 12 5 17 0
24 -2 18 -5z m167 -16 c14 -12 21 -19 15 -15 -5 3 -26 13 -45 21 -25 11 -29
16 -15 16 11 1 31 -9 45 -22z m665 -222 c4 -82 4 -147 0 -143 -7 7 -11 49 -19
248 -3 81 -2 111 4 85 4 -22 11 -107 15 -190z m-665 181 c0 -2 -7 -6 -15 -10
-8 -3 -15 -1 -15 4 0 6 7 10 15 10 8 0 15 -2 15 -4z m45 -160 c5 -56 4 -76 -4
-72 -6 4 -11 24 -11 45 0 20 -5 63 -11 95 -6 32 -7 65 -3 74 9 21 18 -28 29
-142z m1662 104 c6 -24 16 -25 33 -5 7 8 16 15 21 15 15 0 10 -32 -8 -53 -17
-19 -17 -19 5 -13 17 6 22 3 23 -11 1 -10 3 -40 5 -67 4 -57 11 -68 28 -43 7
9 18 17 25 17 6 0 11 6 11 14 0 12 6 12 29 3 72 -27 82 27 16 86 -35 31 -42
43 -34 54 18 21 32 15 64 -30 16 -23 46 -60 66 -82 20 -22 58 -87 85 -145 50
-111 96 -199 124 -240 28 -39 132 -252 126 -257 -15 -15 -106 71 -138 131 -22
41 -18 -2 7 -71 25 -69 31 -103 19 -103 -4 0 -33 21 -66 48 -42 33 -81 78
-129 150 -38 57 -69 107 -69 110 0 4 -14 15 -30 24 -17 9 -30 24 -30 32 0 9
-6 13 -14 10 -16 -6 -76 68 -76 93 0 7 -7 13 -15 13 -17 0 -20 16 -5 25 6 3
10 11 10 17 0 6 -6 6 -15 -2 -13 -10 -19 -10 -35 5 -32 29 -99 176 -102 224
-3 39 0 47 22 58 34 17 41 16 47 -7z m-552 -56 c50 -75 39 -79 -13 -4 -22 33
-37 60 -32 60 4 0 25 -25 45 -56z m-4757 17 c10 -6 9 -13 -6 -31 l-19 -24 -7
22 c-11 34 4 51 32 33z m4917 -61 c3 -5 -1 -10 -9 -10 -8 0 -18 5 -21 10 -3 6
1 10 9 10 8 0 18 -4 21 -10z m81 -28 c21 -13 32 -47 39 -118 8 -88 14 -98 54
-92 17 2 31 0 31 -5 0 -5 7 -4 15 3 13 11 15 8 15 -13 0 -17 -8 -31 -21 -38
-30 -16 -277 -35 -314 -24 -23 7 -1 11 95 16 124 6 210 22 210 38 0 5 -60 7
-132 6 -73 -1 -110 -1 -83 1 53 4 125 23 125 33 0 3 -7 30 -15 60 -8 30 -11
59 -8 64 4 6 1 7 -6 3 -7 -5 -27 -5 -46 -2 -25 5 -35 13 -40 33 -4 17 -2 29 7
34 16 11 59 11 74 1z m-5096 -11 c0 -5 -7 -14 -15 -21 -8 -7 -15 -18 -15 -24
-1 -6 -10 -22 -21 -36 l-21 -25 -19 24 c-18 22 -18 24 -2 37 10 7 25 14 34 14
9 0 19 9 22 20 5 19 37 29 37 11z m4918 -10 c3 -10 0 -12 -12 -8 -10 4 -36 8
-59 8 l-42 2 35 7 c48 11 73 8 78 -9z m-2633 -12 c7 -7 -6 -9 -37 -8 -47 3
-61 12 -35 23 16 6 59 -3 72 -15z m1584 -120 c38 -55 114 -129 132 -129 7 0
10 -3 7 -6 -11 -10 -67 26 -97 63 -61 75 -100 132 -88 127 7 -2 28 -27 46 -55z
m-3959 35 c0 -8 -4 -12 -10 -9 -5 3 -10 10 -10 16 0 5 5 9 10 9 6 0 10 -7 10
-16z m-29 -27 c-1 -12 -15 -9 -19 4 -3 6 1 10 8 8 6 -3 11 -8 11 -12z m-41
-32 c0 -8 -4 -17 -10 -20 -6 -4 -10 5 -10 20 0 15 4 24 10 20 6 -3 10 -12 10
-20z m3260 -5 c0 -5 -4 -10 -10 -10 -5 0 -10 5 -10 10 0 6 5 10 10 10 6 0 10
-4 10 -10z m-2720 -30 c0 -12 -28 -25 -36 -17 -9 9 6 27 22 27 8 0 14 -5 14
-10z m1890 -11 c-25 -4 -65 -7 -90 -7 l-45 1 50 7 c28 4 68 7 90 7 l40 0 -45
-8z m-2543 -35 c-28 -24 -47 -31 -47 -16 0 10 64 51 70 45 3 -3 -8 -16 -23
-29z m2680 12 c-24 -18 -151 -36 -240 -34 -40 0 -56 3 -37 5 147 14 235 26
253 33 33 13 44 11 24 -4z m698 4 c3 -5 1 -10 -4 -10 -6 0 -11 5 -11 10 0 6 2
10 4 10 3 0 8 -4 11 -10z m2161 -44 c3 -15 -1 -34 -11 -49 -12 -20 -13 -26 -2
-30 13 -5 12 -87 -2 -87 -4 0 -21 -13 -39 -30 -21 -19 -44 -30 -60 -29 -24 0
-25 1 -7 9 19 8 19 9 -2 9 -36 1 -27 26 17 46 79 36 72 45 -31 40 -106 -6
-106 -2 -1 15 65 11 71 14 55 26 -10 7 -26 14 -35 14 -10 0 -18 4 -18 9 0 5
-10 12 -22 16 -18 5 -9 10 45 24 37 10 73 23 79 29 18 18 27 15 34 -12z
m-2836 4 c0 -11 -50 -34 -57 -26 -3 3 30 24 55 35 1 1 2 -4 2 -9z m677 -12
c-3 -8 -6 -5 -6 6 -1 11 2 17 5 13 3 -3 4 -12 1 -19z m-2137 -13 c0 -8 -6 -15
-14 -15 -20 0 -29 17 -14 23 22 9 28 7 28 -8z m-740 -45 c0 -5 -15 -10 -32 -9
-28 0 -30 2 -13 9 28 12 45 12 45 0z m3050 0 c0 -5 -2 -10 -4 -10 -3 0 -8 5
-11 10 -3 6 -1 10 4 10 6 0 11 -4 11 -10z m-856 -10 c-5 -5 -39 -12 -74 -15
l-65 -5 55 14 c71 17 97 19 84 6z m716 -33 c0 -20 -25 1 -28 24 -2 23 -2 23
13 5 8 -11 15 -24 15 -29z m1240 29 c0 -2 -3 -11 -6 -20 -9 -23 -34 -20 -34 4
0 13 7 20 20 20 11 0 20 -2 20 -4z m-924 -73 c-11 -11 -19 6 -11 24 8 17 8 17
12 0 3 -10 2 -21 -1 -24z m2152 -45 c13 -20 37 -45 55 -56 27 -16 43 -41 86
-138 29 -65 75 -164 103 -220 46 -91 50 -104 42 -138 l-9 -38 -43 80 c-23 44
-42 84 -42 89 0 5 -56 116 -125 245 -69 130 -125 242 -125 248 0 14 26 -17 58
-72z m-2328 62 c0 -5 -2 -10 -4 -10 -3 0 -8 5 -11 10 -3 6 -1 10 4 10 6 0 11
-4 11 -10z m1100 -30 c0 -5 -7 -10 -15 -10 -8 0 -15 5 -15 10 0 6 7 10 15 10
8 0 15 -4 15 -10z m-920 -20 c0 -5 -5 -10 -11 -10 -5 0 -7 5 -4 10 3 6 8 10
11 10 2 0 4 -4 4 -10z m-180 -10 c0 -5 -2 -10 -4 -10 -3 0 -8 5 -11 10 -3 6
-1 10 4 10 6 0 11 -4 11 -10z m1088 -32 c18 -18 15 -25 -13 -30 -19 -4 -25 -1
-25 12 0 30 18 38 38 18z m-4203 -19 c-32 -9 -47 -3 -26 10 7 5 23 6 35 3 19
-5 18 -6 -9 -13z m4117 -21 c2 -20 8 -32 16 -30 6 1 12 -2 12 -8 0 -5 -2 -10
-4 -10 -2 0 -11 -3 -19 -6 -12 -4 -16 5 -19 40 -2 25 0 46 4 46 4 0 8 -15 10
-32z m-822 -2 c0 -26 -15 -43 -24 -28 -7 12 4 52 15 52 5 0 9 -11 9 -24z
m1786 -1 c15 -11 16 -14 3 -15 -8 0 -24 7 -35 15 -15 11 -16 14 -3 15 8 0 24
-7 35 -15z m-866 -31 c0 -8 -10 -14 -25 -14 -18 0 -25 5 -25 19 0 14 6 17 25
13 14 -2 25 -11 25 -18z m840 -62 c19 -50 24 -56 44 -45 14 8 12 14 -10 47
-28 41 -27 54 5 36 16 -8 21 -8 21 1 0 8 4 8 15 -1 20 -16 19 -34 -1 -26 -9 3
-12 2 -9 -5 4 -6 18 -14 31 -19 23 -9 46 -50 58 -107 6 -25 3 -31 -20 -42 -29
-13 -30 -12 -55 32 -5 9 -19 17 -31 17 -11 0 -27 8 -35 18 -13 15 -14 15 -10
1 5 -14 1 -16 -21 -10 -15 4 -28 15 -30 25 -3 14 1 16 22 10 33 -8 33 -2 -5
53 -25 36 -29 47 -18 54 22 14 33 5 49 -39z m-840 8 c0 -11 -7 -20 -15 -20 -8
0 -15 9 -15 20 0 11 7 20 15 20 8 0 15 -9 15 -20z m789 -16 c25 -41 25 -44 8
-44 -7 0 -21 16 -31 36 -20 43 -29 41 -17 -4 6 -19 6 -32 0 -32 -12 0 -23 46
-15 65 9 25 33 17 55 -21z m-1746 1 c-3 -9 -8 -14 -10 -11 -3 3 -2 9 2 15 9
16 15 13 8 -4z m967 -35 c0 -5 -7 -10 -15 -10 -8 0 -15 5 -15 10 0 6 7 10 15
10 8 0 15 -4 15 -10z m-1956 -43 c7 -19 17 -45 21 -58 l7 -24 -19 25 c-11 14
-22 33 -26 43 -3 9 -16 17 -27 17 -36 0 -20 27 17 29 7 1 19 -14 27 -32z
m1956 -7 c0 -5 -7 -10 -16 -10 -8 0 -12 5 -9 10 3 6 10 10 16 10 5 0 9 -4 9
-10z m1170 -40 c0 -5 -4 -10 -10 -10 -5 0 -10 5 -10 10 0 6 5 10 10 10 6 0 10
-4 10 -10z m-270 -47 c0 -7 -4 -13 -9 -13 -10 0 -21 25 -21 48 1 15 3 14 15
-2 8 -11 15 -26 15 -33z m656 -34 c29 -58 28 -73 -1 -28 -25 36 -38 38 -25 3
15 -39 11 -52 -6 -21 -10 19 -13 38 -8 55 4 15 7 30 6 35 -5 21 11 1 34 -44z
m-1548 20 c2 -12 -4 -15 -28 -11 -16 2 -30 8 -30 11 0 26 53 26 58 0z m1268
-49 c15 -13 20 -50 6 -50 -16 0 -43 72 -35 94 7 20 8 19 11 -6 2 -14 10 -32
18 -38z m-272 35 c-4 -8 -12 -15 -20 -15 -17 0 -18 17 -1 23 22 9 27 7 21 -8z
m-2934 -15 c0 -5 -5 -10 -11 -10 -5 0 -7 5 -4 10 3 6 8 10 11 10 2 0 4 -4 4
-10z m3315 -50 c29 -57 33 -79 11 -61 -19 16 -56 87 -56 107 0 25 19 6 45 -46z
m-1361 35 c3 -8 1 -15 -4 -15 -6 0 -10 7 -10 15 0 8 2 15 4 15 2 0 6 -7 10
-15z m1189 -82 c14 -27 22 -54 19 -62 -2 -8 -1 -11 4 -8 5 3 9 -7 10 -21 1
-15 18 -71 38 -125 42 -113 53 -157 38 -157 -6 0 -14 15 -17 32 -4 18 -11 38
-15 43 -7 9 -110 328 -110 340 0 15 13 -1 33 -42z m-3013 26 c0 -16 -80 -47
-140 -53 l-55 -6 64 15 c35 8 78 24 95 34 38 24 36 23 36 10z m3159 -113 c13
-24 32 -46 42 -49 15 -4 19 -14 19 -45 0 -45 -13 -60 -35 -42 -21 17 -77 134
-67 138 5 1 7 14 4 29 -7 37 10 23 37 -31z m-3429 35 c0 -5 -11 -8 -25 -7 -33
1 -33 16 0 16 14 0 25 -4 25 -9z m3344 -67 c3 -8 2 -12 -4 -9 -6 3 -10 10 -10
16 0 14 7 11 14 -7z m222 -56 c21 -40 -3 -49 -33 -12 -23 29 -29 55 -16 68 8
8 26 -13 49 -56z m252 -113 c56 -119 61 -135 36 -114 -27 22 -91 162 -108 234
-7 28 -6 29 7 10 7 -11 37 -70 65 -130z m-194 46 c-8 -9 -15 8 -19 45 l-5 39
14 -40 c7 -22 12 -42 10 -44z m-2529 -1 c3 -5 1 -10 -4 -10 -6 0 -11 5 -11 10
0 6 2 10 4 10 3 0 8 -4 11 -10z m2225 -77 c-1 -24 -2 -26 -11 -10 -5 9 -7 22
-4 27 10 17 15 11 15 -17z m-2220 -53 c0 -5 -4 -10 -10 -10 -5 0 -10 5 -10 10
0 6 5 10 10 10 6 0 10 -4 10 -10z m2457 -89 c4 -26 2 -41 -5 -41 -16 0 -28 29
-31 75 -2 37 -1 39 14 24 9 -9 19 -35 22 -58z m-5465 -1 c13 -11 16 -20 9 -20
-13 0 -41 24 -41 34 0 11 11 6 32 -14z m3026 -13 c2 -10 -3 -17 -12 -17 -10 0
-16 9 -16 21 0 24 23 21 28 -4z m2372 -43 c0 -8 -4 -12 -10 -9 -5 3 -10 10
-10 16 0 5 5 9 10 9 6 0 10 -7 10 -16z m-2367 -25 c4 -14 0 -19 -14 -19 -14 0
-19 7 -19 25 0 29 25 25 33 -6z"/>
<path d="M3705 6930 c3 -5 11 -10 16 -10 6 0 7 5 4 10 -3 6 -11 10 -16 10 -6
0 -7 -4 -4 -10z"/>
<path d="M3758 6923 c-34 -9 -18 -23 25 -22 38 0 96 16 72 19 -40 6 -83 7 -97
3z"/>
<path d="M3506 6901 c-4 -6 -14 -8 -24 -5 -14 5 -14 3 2 -10 19 -15 19 -16 -3
-35 -22 -19 -22 -19 -2 -26 12 -3 26 -15 31 -26 13 -24 25 -24 50 1 26 26 16
52 -16 44 -15 -4 -24 -2 -24 6 0 7 7 10 16 6 12 -5 15 0 12 21 -3 28 -30 43
-42 24z"/>
<path d="M3730 6881 c0 -5 13 -11 30 -14 21 -5 28 -11 24 -22 -3 -8 -13 -15
-21 -15 -8 0 -11 5 -7 11 7 12 -19 10 -61 -6 -16 -5 -17 -5 -5 4 8 5 12 12 10
15 -3 2 -18 -7 -35 -21 -16 -14 -24 -22 -17 -19 6 4 12 2 12 -3 0 -6 -10 -11
-23 -11 -13 0 -28 -5 -34 -11 -11 -11 -6 -49 7 -49 5 0 6 8 3 19 -6 24 13 36
32 21 12 -10 18 -10 30 0 12 10 15 10 15 -4 0 -9 -7 -16 -15 -16 -8 0 -15 -4
-15 -9 0 -5 -9 -11 -20 -14 -15 -4 -18 -10 -13 -24 6 -15 8 -16 11 -2 2 13 10
15 36 9 19 -4 39 -10 45 -14 6 -4 16 -4 22 0 8 5 4 13 -11 24 -17 13 -21 22
-15 36 5 11 7 23 6 28 -1 5 5 6 14 3 8 -4 15 -2 15 3 0 6 5 10 11 10 5 0 7 -6
3 -12 -6 -10 -4 -10 8 0 8 7 23 9 33 6 9 -4 20 -2 24 5 4 6 15 9 24 5 13 -5
14 -10 6 -26 -10 -19 -10 -19 15 -2 17 11 36 14 56 10 24 -4 30 -2 30 12 0 19
-67 46 -76 31 -7 -12 -24 -11 -24 2 0 5 14 15 31 21 48 16 14 29 -45 16 -34
-7 -55 -7 -73 1 -29 13 -43 14 -43 2z m120 -35 c0 -3 -4 -8 -10 -11 -5 -3 -10
-1 -10 4 0 6 5 11 10 11 6 0 10 -2 10 -4z"/>
<path d="M3585 6860 c-3 -6 1 -7 9 -4 18 7 21 14 7 14 -6 0 -13 -4 -16 -10z"/>
<path d="M4020 6820 c-11 -8 -7 -9 15 -4 37 8 45 14 19 14 -10 0 -26 -5 -34
-10z"/>
<path d="M3882 6773 c-17 -12 -26 -13 -34 -5 -8 8 -19 7 -39 -4 -33 -17 -35
-20 -13 -28 10 -4 13 -2 8 6 -5 7 1 9 19 4 26 -6 107 21 107 36 0 13 -23 8
-48 -9z"/>
<path d="M3975 6780 c3 -5 11 -10 16 -10 6 0 7 5 4 10 -3 6 -11 10 -16 10 -6
0 -7 -4 -4 -10z"/>
<path d="M4340 6785 c0 -3 18 -14 40 -25 40 -20 83 -28 65 -11 -11 10 -105 42
-105 36z"/>
<path d="M3455 6770 c-11 -18 5 -31 26 -20 11 6 17 15 14 21 -8 12 -32 12 -40
-1z"/>
<path d="M3945 6751 c-10 -17 -66 -40 -81 -34 -9 3 -21 -3 -30 -15 -8 -12 -21
-19 -28 -16 -8 3 -28 -2 -45 -11 -17 -9 -31 -11 -31 -5 0 5 6 10 14 10 8 0 17
4 20 9 3 4 -6 6 -19 3 -14 -2 -25 -9 -25 -15 0 -6 -10 -1 -23 11 -13 12 -28
22 -34 22 -16 0 -23 -26 -10 -39 14 -14 30 -15 22 -1 -3 6 1 10 11 10 13 0 14
-3 5 -14 -13 -15 -5 -46 12 -46 6 0 7 -3 4 -6 -4 -4 -13 -1 -22 6 -10 8 -15 9
-15 1 0 -16 -17 -13 -24 5 -3 8 -2 12 4 9 6 -3 10 -2 10 4 0 6 -10 15 -21 22
-16 8 -20 8 -14 0 4 -7 2 -18 -5 -26 -11 -14 0 -27 27 -31 40 -6 51 -64 12
-64 -10 0 -19 -4 -19 -8 0 -5 -13 -7 -30 -4 -16 2 -30 9 -30 14 0 5 4 7 8 4 5
-3 9 1 9 9 0 8 -4 12 -8 9 -4 -2 -10 4 -12 13 -3 13 -5 11 -6 -6 -1 -20 -3
-22 -18 -11 -10 7 0 -5 22 -27 22 -22 43 -38 46 -36 4 1 20 -4 35 -12 16 -8
36 -15 45 -15 9 0 19 -3 23 -7 3 -4 17 -8 29 -9 12 -2 16 0 10 2 -7 3 -13 15
-13 26 0 11 5 18 13 15 6 -2 22 0 35 4 14 6 32 5 45 -2 18 -9 17 -6 -6 16 -17
16 -40 27 -58 27 -17 1 -25 4 -18 8 14 10 -20 30 -50 30 -11 0 -23 5 -27 11
-5 9 1 10 20 5 16 -4 25 -3 22 3 -3 5 9 16 28 25 18 8 39 23 46 31 10 12 15
13 21 4 6 -10 11 -10 23 1 9 7 19 10 22 7 3 -3 18 -1 31 4 14 5 58 11 97 14
39 2 82 8 96 13 24 9 23 9 -12 14 -20 2 -34 0 -32 -4 10 -16 -35 -8 -52 10
-16 16 -16 17 -1 20 10 2 15 8 12 13 -8 12 -52 12 -60 0z m-65 -71 c0 -5 -2
-10 -4 -10 -3 0 -8 5 -11 10 -3 6 -1 10 4 10 6 0 11 -4 11 -10z m-193 -176
c-3 -3 -12 -4 -19 -1 -8 3 -5 6 6 6 11 1 17 -2 13 -5z m24 -17 c-10 -9 -11 -8
-5 6 3 10 9 15 12 12 3 -3 0 -11 -7 -18z"/>
<path d="M3385 6730 c-3 -5 -2 -10 4 -10 5 0 13 5 16 10 3 6 2 10 -4 10 -5 0
-13 -4 -16 -10z"/>
<path d="M3577 6684 c-8 -9 11 -44 24 -44 6 0 3 7 -5 16 -20 19 -20 28 -1 21
8 -4 17 -2 20 3 7 11 -28 14 -38 4z"/>
<path d="M4337 6655 c18 -25 33 -32 33 -17 0 10 -33 42 -44 42 -4 0 1 -11 11
-25z"/>
<path d="M3810 6620 c0 -5 -7 -7 -15 -4 -16 7 -45 -12 -45 -29 0 -5 8 -3 18 6
25 23 39 22 19 -1 -16 -17 -14 -20 33 -45 50 -27 113 -36 125 -17 3 6 17 10
30 10 13 0 27 -4 30 -10 3 -5 11 -10 17 -10 7 0 1 10 -11 22 -21 19 -27 20
-58 9 -27 -10 -45 -10 -85 -1 -35 9 -46 15 -37 22 9 5 4 6 -15 2 -22 -5 -28
-4 -24 7 3 8 14 19 26 25 12 6 19 14 15 17 -10 10 -23 8 -23 -3z"/>
<path d="M4381 6626 c2 -2 20 -6 39 -10 25 -4 31 -3 20 4 -14 9 -69 15 -59 6z"/>
<path d="M3405 6600 c3 -5 8 -10 11 -10 2 0 4 5 4 10 0 6 -5 10 -11 10 -5 0
-7 -4 -4 -10z"/>
<path d="M3600 6602 c0 -12 19 -26 26 -19 2 2 -2 10 -11 17 -9 8 -15 8 -15 2z"/>
<path d="M3490 6586 c0 -2 8 -10 18 -17 15 -13 16 -12 3 4 -13 16 -21 21 -21
13z"/>
<path d="M3633 6565 c-7 -8 -9 -16 -4 -19 5 -3 12 1 15 10 8 22 4 25 -11 9z"/>
<path d="M4399 6550 c21 -18 51 -27 51 -15 0 6 -56 35 -67 35 -4 -1 3 -10 16
-20z"/>
<path d="M4710 6469 c0 -11 30 -32 123 -85 74 -43 81 -49 109 -110 30 -64 51
-86 76 -77 11 4 17 -8 13 -29 0 -5 3 -8 9 -8 6 0 10 6 10 14 0 8 2 20 5 28 3
7 -6 18 -20 25 -20 9 -25 8 -25 -3 0 -29 -16 -12 -50 52 -25 47 -50 78 -86
105 -55 43 -164 100 -164 88z"/>
<path d="M4086 6396 c21 -15 30 -14 19 3 -3 6 -14 11 -23 11 -13 0 -13 -2 4
-14z"/>
<path d="M4065 6360 c-3 -6 1 -7 9 -4 18 7 21 14 7 14 -6 0 -13 -4 -16 -10z"/>
<path d="M4190 6366 c0 -2 7 -7 16 -10 8 -3 12 -2 9 4 -6 10 -25 14 -25 6z"/>
<path d="M4637 6319 c12 -12 24 -21 27 -18 2 2 -8 13 -22 23 l-27 19 22 -24z"/>
<path d="M5454 6311 c-32 -20 -49 -39 -42 -47 3 -2 22 12 44 31 44 39 43 44
-2 16z"/>
<path d="M4210 6290 c0 -5 5 -10 11 -10 5 0 7 5 4 10 -3 6 -8 10 -11 10 -2 0
-4 -4 -4 -10z"/>
<path d="M4467 6269 c7 -7 15 -10 18 -7 3 3 -2 9 -12 12 -14 6 -15 5 -6 -5z"/>
<path d="M5347 6253 c-4 -3 -7 -16 -7 -27 1 -21 1 -21 15 -2 8 11 15 23 15 28
0 10 -14 11 -23 1z"/>
<path d="M4631 6228 c-3 -22 26 -58 52 -68 70 -24 122 -4 97 38 -8 14 -9 12
-10 -10 0 -18 -5 -28 -15 -28 -23 0 -112 47 -118 62 -3 7 -6 10 -6 6z"/>
<path d="M5280 6220 c-9 -6 -10 -10 -3 -10 6 0 15 5 18 10 8 12 4 12 -15 0z"/>
<path d="M4790 6211 c0 -14 37 -51 50 -51 15 0 12 15 -7 32 -28 23 -43 30 -43
19z"/>
<path d="M4920 6194 c0 -9 7 -14 17 -12 25 5 28 28 4 28 -12 0 -21 -6 -21 -16z"/>
<path d="M5405 6170 c-36 -18 -37 -19 -10 -14 17 3 40 6 53 7 12 1 21 6 19 11
-6 17 -21 16 -62 -4z"/>
<path d="M5060 6159 c0 -5 -9 -9 -19 -9 -11 0 -23 -4 -26 -10 -8 -12 -9 -12
44 4 37 10 41 14 23 18 -12 4 -22 2 -22 -3z"/>
<path d="M5125 6159 c-9 -13 -4 -18 31 -28 26 -7 29 -6 30 15 2 22 1 22 -15 7
-15 -15 -16 -15 -19 0 -4 19 -18 22 -27 6z"/>
<path d="M5335 6130 c-3 -5 -2 -10 4 -10 5 0 13 5 16 10 3 6 2 10 -4 10 -5 0
-13 -4 -16 -10z"/>
<path d="M4765 6120 c-13 -20 8 -32 46 -27 23 3 39 1 39 -5 0 -6 6 -5 15 2 21
18 19 27 -10 32 -17 4 -25 1 -25 -8 0 -8 -4 -14 -10 -14 -5 0 -7 7 -4 15 5 11
-1 15 -19 15 -14 0 -29 -4 -32 -10z"/>
<path d="M4765 6033 c-3 -9 -2 -19 1 -22 4 -3 9 0 11 7 3 6 15 12 28 12 38 0
37 16 0 17 -22 1 -36 -4 -40 -14z"/>
<path d="M5035 6017 c14 -21 20 -25 31 -16 16 14 19 23 3 14 -5 -4 -20 1 -31
12 l-21 18 18 -28z"/>
<path d="M5117 5993 c-4 -3 -7 -11 -7 -17 0 -6 5 -5 12 2 6 6 9 14 7 17 -3 3
-9 2 -12 -2z"/>
<path d="M2455 6470 c3 -5 8 -10 11 -10 2 0 4 5 4 10 0 6 -5 10 -11 10 -5 0
-7 -4 -4 -10z"/>
<path d="M2486 6435 c4 -8 10 -15 16 -15 5 0 7 4 4 9 -4 5 0 12 6 14 7 3 3 6
-9 6 -16 1 -21 -3 -17 -14z"/>
<path d="M2962 6330 c-18 -29 -15 -38 4 -12 9 13 14 25 12 27 -2 2 -9 -5 -16
-15z"/>
<path d="M3110 6297 c30 -30 57 -53 60 -50 3 3 -1 8 -7 10 -7 3 -13 9 -13 15
0 6 7 8 15 4 8 -3 15 -1 15 4 0 4 -14 11 -30 15 -17 4 -45 18 -63 33 -17 14
-7 0 23 -31z"/>
<path d="M2986 6292 c6 -4 13 -15 17 -25 6 -15 3 -17 -16 -12 -21 6 -21 6 -3
-9 27 -21 43 -20 41 3 -1 23 -23 51 -39 51 -8 0 -8 -3 0 -8z"/>
<path d="M3196 6239 c21 -23 26 -24 22 -2 -2 9 -11 17 -21 19 -18 2 -18 2 -1
-17z"/>
<path d="M3220 6196 c0 -2 7 -7 16 -10 8 -3 12 -2 9 4 -6 10 -25 14 -25 6z"/>
<path d="M3130 6155 c-1 -5 -2 -14 -1 -19 1 -5 -4 -13 -11 -17 -10 -7 -10 -9
0 -9 15 0 26 24 19 42 -3 7 -6 9 -7 3z"/>
<path d="M3410 6135 c27 -29 27 -29 27 -12 0 7 -12 18 -25 25 l-25 12 23 -25z"/>
<path d="M3154 6119 c-4 -7 -3 -9 4 -5 6 3 15 -2 21 -11 6 -10 11 -13 11 -7 0
20 -27 37 -36 23z"/>
<path d="M3227 6119 c7 -7 15 -10 18 -7 3 3 -2 9 -12 12 -14 6 -15 5 -6 -5z"/>
<path d="M3260 6122 c0 -12 19 -26 26 -19 2 2 -2 10 -11 17 -9 8 -15 8 -15 2z"/>
<path d="M3023 6098 c3 -17 48 -48 59 -42 10 7 78 -34 78 -47 0 -5 5 -9 10 -9
21 0 8 16 -40 47 -31 21 -56 30 -67 26 -10 -3 -15 -3 -11 2 9 9 -9 35 -23 35
-5 0 -8 -6 -6 -12z"/>
<path d="M3270 6070 c0 -5 5 -10 11 -10 5 0 7 5 4 10 -3 6 -8 10 -11 10 -2 0
-4 -4 -4 -10z"/>
<path d="M3196 6022 c-7 -12 6 -27 27 -30 17 -3 17 -2 0 17 -20 24 -20 24 -27
13z"/>
<path d="M3395 5850 c3 -5 8 -10 11 -10 2 0 4 5 4 10 0 6 -5 10 -11 10 -5 0
-7 -4 -4 -10z"/>
<path d="M4927 5913 c14 -3 20 -9 16 -19 -5 -14 8 -20 20 -8 13 13 -7 34 -32
33 -22 -2 -23 -2 -4 -6z"/>
<path d="M4906 5865 c4 -8 10 -12 15 -9 14 8 10 24 -6 24 -9 0 -12 -6 -9 -15z"/>
<path d="M4882 5848 c2 -6 10 -14 16 -16 7 -2 10 2 6 12 -7 18 -28 22 -22 4z"/>
<path d="M4120 5861 c0 -5 5 -13 10 -16 6 -3 10 -2 10 4 0 5 -4 13 -10 16 -5
3 -10 2 -10 -4z"/>
<path d="M5731 4233 c-1 -34 13 -52 23 -28 3 8 1 15 -4 15 -5 0 -11 10 -13 23
-3 16 -5 14 -6 -10z"/>
<path d="M5760 4160 c-13 -8 -12 -10 3 -10 9 0 17 5 17 10 0 12 -1 12 -20 0z"/>
<path d="M5740 4109 c0 -5 5 -7 10 -4 6 3 10 8 10 11 0 2 -4 4 -10 4 -5 0 -10
-5 -10 -11z"/>
<path d="M4091 4534 c0 -11 3 -14 6 -6 3 7 2 16 -1 19 -3 4 -6 -2 -5 -13z"/>
<path d="M6770 4365 c0 -5 5 -17 10 -25 5 -8 10 -10 10 -5 0 6 -5 17 -10 25
-5 8 -10 11 -10 5z"/>
<path d="M6620 4279 c0 -5 5 -7 10 -4 6 3 10 8 10 11 0 2 -4 4 -10 4 -5 0 -10
-5 -10 -11z"/>
<path d="M4130 4100 c-13 -8 -13 -10 0 -14 8 -3 34 -6 57 -8 43 -3 50 6 11 15
-13 2 -30 7 -38 11 -8 3 -22 2 -30 -4z"/>
<path d="M4241 3994 c0 -11 3 -14 6 -6 3 7 2 16 -1 19 -3 4 -6 -2 -5 -13z"/>
<path d="M4156 3965 c4 -8 11 -15 16 -15 6 0 5 6 -2 15 -7 8 -14 15 -16 15 -2
0 -1 -7 2 -15z"/>
<path d="M6665 2840 c-17 -18 -17 -20 -1 -20 9 0 19 7 23 15 9 25 -2 27 -22 5z"/>
<path d="M5940 2250 c0 -5 5 -10 11 -10 5 0 7 5 4 10 -3 6 -8 10 -11 10 -2 0
-4 -4 -4 -10z"/>
<path d="M5840 2110 c0 -5 12 -10 28 -10 21 0 24 2 12 10 -20 13 -40 13 -40 0z"/>
<path d="M5983 1624 c4 -6 -5 -26 -18 -44 -28 -38 -28 -41 2 -34 26 7 42 60
23 77 -9 8 -11 8 -7 1z"/>
<path d="M6140 1541 c0 -19 22 -23 38 -7 15 15 14 16 -11 16 -15 0 -27 -4 -27
-9z"/>
<path d="M6113 1503 c-7 -3 -13 -12 -13 -21 0 -15 2 -15 17 1 18 18 16 27 -4
20z"/>
<path d="M6180 1460 c0 -5 7 -7 15 -4 8 4 15 8 15 10 0 2 -7 4 -15 4 -8 0 -15
-4 -15 -10z"/>
<path d="M6370 1272 c0 -13 31 -52 41 -52 5 0 3 14 -6 30 -14 28 -35 41 -35
22z"/>
<path d="M5767 1223 c-4 -3 -7 -11 -7 -17 0 -6 5 -5 12 2 6 6 9 14 7 17 -3 3
-9 2 -12 -2z"/>
<path d="M5903 599 c-39 -11 -43 -25 -7 -24 14 0 30 8 35 18 6 9 9 17 7 16 -2
0 -18 -5 -35 -10z"/>
<path d="M5910 529 c0 -5 5 -7 10 -4 6 3 10 8 10 11 0 2 -4 4 -10 4 -5 0 -10
-5 -10 -11z"/>
<path d="M5903 405 c0 -33 2 -45 4 -27 2 18 2 45 0 60 -2 15 -4 0 -4 -33z"/>
<path d="M5913 130 c0 -41 2 -58 4 -37 2 20 2 54 0 75 -2 20 -4 3 -4 -38z"/>
<path d="M5921 14 c0 -11 3 -14 6 -6 3 7 2 16 -1 19 -3 4 -6 -2 -5 -13z"/>
</g>
</svg>
